<?xml version="1.0" encoding="utf-8" standalone="no"?>
<!DOCTYPE svg PUBLIC "-//W3C//DTD SVG 1.1//EN"
  "http://www.w3.org/Graphics/SVG/1.1/DTD/svg11.dtd">
<!-- Created with matplotlib (https://matplotlib.org/) -->
<svg height="345.6pt" version="1.1" viewBox="0 0 460.8 345.6" width="460.8pt" xmlns="http://www.w3.org/2000/svg" xmlns:xlink="http://www.w3.org/1999/xlink">
 <metadata>
  <rdf:RDF xmlns:cc="http://creativecommons.org/ns#" xmlns:dc="http://purl.org/dc/elements/1.1/" xmlns:rdf="http://www.w3.org/1999/02/22-rdf-syntax-ns#">
   <cc:Work>
    <dc:type rdf:resource="http://purl.org/dc/dcmitype/StillImage"/>
    <dc:date>2020-12-08T16:34:26.652413</dc:date>
    <dc:format>image/svg+xml</dc:format>
    <dc:creator>
     <cc:Agent>
      <dc:title>Matplotlib v3.3.2, https://matplotlib.org/</dc:title>
     </cc:Agent>
    </dc:creator>
   </cc:Work>
  </rdf:RDF>
 </metadata>
 <defs>
  <style type="text/css">*{stroke-linecap:butt;stroke-linejoin:round;}</style>
 </defs>
 <g id="figure_1">
  <g id="patch_1">
   <path d="M 0 345.6 
L 460.8 345.6 
L 460.8 0 
L 0 0 
z
" style="fill:#ffffff;"/>
  </g>
  <g id="axes_1">
   <g id="patch_2">
    <path d="M 57.6 307.584 
L 414.72 307.584 
L 414.72 41.472 
L 57.6 41.472 
z
" style="fill:#ffffff;"/>
   </g>
   <g id="matplotlib.axis_1">
    <g id="xtick_1">
     <g id="line2d_1">
      <path clip-path="url(#pf40ca44b68)" d="M 73.832727 307.584 
L 73.832727 41.472 
" style="fill:none;stroke:#b0b0b0;stroke-linecap:square;stroke-width:0.8;"/>
     </g>
     <g id="line2d_2">
      <defs>
       <path d="M 0 0 
L 0 3.5 
" id="m383ba1cca7" style="stroke:#000000;stroke-width:0.8;"/>
      </defs>
      <g>
       <use style="stroke:#000000;stroke-width:0.8;" x="73.832727" xlink:href="#m383ba1cca7" y="307.584"/>
      </g>
     </g>
     <g id="text_1">
      <!-- 0 -->
      <g transform="translate(70.651477 322.182437)scale(0.1 -0.1)">
       <defs>
        <path d="M 31.78125 66.40625 
Q 24.171875 66.40625 20.328125 58.90625 
Q 16.5 51.421875 16.5 36.375 
Q 16.5 21.390625 20.328125 13.890625 
Q 24.171875 6.390625 31.78125 6.390625 
Q 39.453125 6.390625 43.28125 13.890625 
Q 47.125 21.390625 47.125 36.375 
Q 47.125 51.421875 43.28125 58.90625 
Q 39.453125 66.40625 31.78125 66.40625 
z
M 31.78125 74.21875 
Q 44.046875 74.21875 50.515625 64.515625 
Q 56.984375 54.828125 56.984375 36.375 
Q 56.984375 17.96875 50.515625 8.265625 
Q 44.046875 -1.421875 31.78125 -1.421875 
Q 19.53125 -1.421875 13.0625 8.265625 
Q 6.59375 17.96875 6.59375 36.375 
Q 6.59375 54.828125 13.0625 64.515625 
Q 19.53125 74.21875 31.78125 74.21875 
z
" id="DejaVuSans-48"/>
       </defs>
       <use xlink:href="#DejaVuSans-48"/>
      </g>
     </g>
    </g>
    <g id="xtick_2">
     <g id="line2d_3">
      <path clip-path="url(#pf40ca44b68)" d="M 138.828632 307.584 
L 138.828632 41.472 
" style="fill:none;stroke:#b0b0b0;stroke-linecap:square;stroke-width:0.8;"/>
     </g>
     <g id="line2d_4">
      <g>
       <use style="stroke:#000000;stroke-width:0.8;" x="138.828632" xlink:href="#m383ba1cca7" y="307.584"/>
      </g>
     </g>
     <g id="text_2">
      <!-- 200 -->
      <g transform="translate(129.284882 322.182437)scale(0.1 -0.1)">
       <defs>
        <path d="M 19.1875 8.296875 
L 53.609375 8.296875 
L 53.609375 0 
L 7.328125 0 
L 7.328125 8.296875 
Q 12.9375 14.109375 22.625 23.890625 
Q 32.328125 33.6875 34.8125 36.53125 
Q 39.546875 41.84375 41.421875 45.53125 
Q 43.3125 49.21875 43.3125 52.78125 
Q 43.3125 58.59375 39.234375 62.25 
Q 35.15625 65.921875 28.609375 65.921875 
Q 23.96875 65.921875 18.8125 64.3125 
Q 13.671875 62.703125 7.8125 59.421875 
L 7.8125 69.390625 
Q 13.765625 71.78125 18.9375 73 
Q 24.125 74.21875 28.421875 74.21875 
Q 39.75 74.21875 46.484375 68.546875 
Q 53.21875 62.890625 53.21875 53.421875 
Q 53.21875 48.921875 51.53125 44.890625 
Q 49.859375 40.875 45.40625 35.40625 
Q 44.1875 33.984375 37.640625 27.21875 
Q 31.109375 20.453125 19.1875 8.296875 
z
" id="DejaVuSans-50"/>
       </defs>
       <use xlink:href="#DejaVuSans-50"/>
       <use x="63.623047" xlink:href="#DejaVuSans-48"/>
       <use x="127.246094" xlink:href="#DejaVuSans-48"/>
      </g>
     </g>
    </g>
    <g id="xtick_3">
     <g id="line2d_5">
      <path clip-path="url(#pf40ca44b68)" d="M 203.824537 307.584 
L 203.824537 41.472 
" style="fill:none;stroke:#b0b0b0;stroke-linecap:square;stroke-width:0.8;"/>
     </g>
     <g id="line2d_6">
      <g>
       <use style="stroke:#000000;stroke-width:0.8;" x="203.824537" xlink:href="#m383ba1cca7" y="307.584"/>
      </g>
     </g>
     <g id="text_3">
      <!-- 400 -->
      <g transform="translate(194.280787 322.182437)scale(0.1 -0.1)">
       <defs>
        <path d="M 37.796875 64.3125 
L 12.890625 25.390625 
L 37.796875 25.390625 
z
M 35.203125 72.90625 
L 47.609375 72.90625 
L 47.609375 25.390625 
L 58.015625 25.390625 
L 58.015625 17.1875 
L 47.609375 17.1875 
L 47.609375 0 
L 37.796875 0 
L 37.796875 17.1875 
L 4.890625 17.1875 
L 4.890625 26.703125 
z
" id="DejaVuSans-52"/>
       </defs>
       <use xlink:href="#DejaVuSans-52"/>
       <use x="63.623047" xlink:href="#DejaVuSans-48"/>
       <use x="127.246094" xlink:href="#DejaVuSans-48"/>
      </g>
     </g>
    </g>
    <g id="xtick_4">
     <g id="line2d_7">
      <path clip-path="url(#pf40ca44b68)" d="M 268.820442 307.584 
L 268.820442 41.472 
" style="fill:none;stroke:#b0b0b0;stroke-linecap:square;stroke-width:0.8;"/>
     </g>
     <g id="line2d_8">
      <g>
       <use style="stroke:#000000;stroke-width:0.8;" x="268.820442" xlink:href="#m383ba1cca7" y="307.584"/>
      </g>
     </g>
     <g id="text_4">
      <!-- 600 -->
      <g transform="translate(259.276692 322.182437)scale(0.1 -0.1)">
       <defs>
        <path d="M 33.015625 40.375 
Q 26.375 40.375 22.484375 35.828125 
Q 18.609375 31.296875 18.609375 23.390625 
Q 18.609375 15.53125 22.484375 10.953125 
Q 26.375 6.390625 33.015625 6.390625 
Q 39.65625 6.390625 43.53125 10.953125 
Q 47.40625 15.53125 47.40625 23.390625 
Q 47.40625 31.296875 43.53125 35.828125 
Q 39.65625 40.375 33.015625 40.375 
z
M 52.59375 71.296875 
L 52.59375 62.3125 
Q 48.875 64.0625 45.09375 64.984375 
Q 41.3125 65.921875 37.59375 65.921875 
Q 27.828125 65.921875 22.671875 59.328125 
Q 17.53125 52.734375 16.796875 39.40625 
Q 19.671875 43.65625 24.015625 45.921875 
Q 28.375 48.1875 33.59375 48.1875 
Q 44.578125 48.1875 50.953125 41.515625 
Q 57.328125 34.859375 57.328125 23.390625 
Q 57.328125 12.15625 50.6875 5.359375 
Q 44.046875 -1.421875 33.015625 -1.421875 
Q 20.359375 -1.421875 13.671875 8.265625 
Q 6.984375 17.96875 6.984375 36.375 
Q 6.984375 53.65625 15.1875 63.9375 
Q 23.390625 74.21875 37.203125 74.21875 
Q 40.921875 74.21875 44.703125 73.484375 
Q 48.484375 72.75 52.59375 71.296875 
z
" id="DejaVuSans-54"/>
       </defs>
       <use xlink:href="#DejaVuSans-54"/>
       <use x="63.623047" xlink:href="#DejaVuSans-48"/>
       <use x="127.246094" xlink:href="#DejaVuSans-48"/>
      </g>
     </g>
    </g>
    <g id="xtick_5">
     <g id="line2d_9">
      <path clip-path="url(#pf40ca44b68)" d="M 333.816347 307.584 
L 333.816347 41.472 
" style="fill:none;stroke:#b0b0b0;stroke-linecap:square;stroke-width:0.8;"/>
     </g>
     <g id="line2d_10">
      <g>
       <use style="stroke:#000000;stroke-width:0.8;" x="333.816347" xlink:href="#m383ba1cca7" y="307.584"/>
      </g>
     </g>
     <g id="text_5">
      <!-- 800 -->
      <g transform="translate(324.272597 322.182437)scale(0.1 -0.1)">
       <defs>
        <path d="M 31.78125 34.625 
Q 24.75 34.625 20.71875 30.859375 
Q 16.703125 27.09375 16.703125 20.515625 
Q 16.703125 13.921875 20.71875 10.15625 
Q 24.75 6.390625 31.78125 6.390625 
Q 38.8125 6.390625 42.859375 10.171875 
Q 46.921875 13.96875 46.921875 20.515625 
Q 46.921875 27.09375 42.890625 30.859375 
Q 38.875 34.625 31.78125 34.625 
z
M 21.921875 38.8125 
Q 15.578125 40.375 12.03125 44.71875 
Q 8.5 49.078125 8.5 55.328125 
Q 8.5 64.0625 14.71875 69.140625 
Q 20.953125 74.21875 31.78125 74.21875 
Q 42.671875 74.21875 48.875 69.140625 
Q 55.078125 64.0625 55.078125 55.328125 
Q 55.078125 49.078125 51.53125 44.71875 
Q 48 40.375 41.703125 38.8125 
Q 48.828125 37.15625 52.796875 32.3125 
Q 56.78125 27.484375 56.78125 20.515625 
Q 56.78125 9.90625 50.3125 4.234375 
Q 43.84375 -1.421875 31.78125 -1.421875 
Q 19.734375 -1.421875 13.25 4.234375 
Q 6.78125 9.90625 6.78125 20.515625 
Q 6.78125 27.484375 10.78125 32.3125 
Q 14.796875 37.15625 21.921875 38.8125 
z
M 18.3125 54.390625 
Q 18.3125 48.734375 21.84375 45.5625 
Q 25.390625 42.390625 31.78125 42.390625 
Q 38.140625 42.390625 41.71875 45.5625 
Q 45.3125 48.734375 45.3125 54.390625 
Q 45.3125 60.0625 41.71875 63.234375 
Q 38.140625 66.40625 31.78125 66.40625 
Q 25.390625 66.40625 21.84375 63.234375 
Q 18.3125 60.0625 18.3125 54.390625 
z
" id="DejaVuSans-56"/>
       </defs>
       <use xlink:href="#DejaVuSans-56"/>
       <use x="63.623047" xlink:href="#DejaVuSans-48"/>
       <use x="127.246094" xlink:href="#DejaVuSans-48"/>
      </g>
     </g>
    </g>
    <g id="xtick_6">
     <g id="line2d_11">
      <path clip-path="url(#pf40ca44b68)" d="M 398.812252 307.584 
L 398.812252 41.472 
" style="fill:none;stroke:#b0b0b0;stroke-linecap:square;stroke-width:0.8;"/>
     </g>
     <g id="line2d_12">
      <g>
       <use style="stroke:#000000;stroke-width:0.8;" x="398.812252" xlink:href="#m383ba1cca7" y="307.584"/>
      </g>
     </g>
     <g id="text_6">
      <!-- 1000 -->
      <g transform="translate(386.087252 322.182437)scale(0.1 -0.1)">
       <defs>
        <path d="M 12.40625 8.296875 
L 28.515625 8.296875 
L 28.515625 63.921875 
L 10.984375 60.40625 
L 10.984375 69.390625 
L 28.421875 72.90625 
L 38.28125 72.90625 
L 38.28125 8.296875 
L 54.390625 8.296875 
L 54.390625 0 
L 12.40625 0 
z
" id="DejaVuSans-49"/>
       </defs>
       <use xlink:href="#DejaVuSans-49"/>
       <use x="63.623047" xlink:href="#DejaVuSans-48"/>
       <use x="127.246094" xlink:href="#DejaVuSans-48"/>
       <use x="190.869141" xlink:href="#DejaVuSans-48"/>
      </g>
     </g>
    </g>
    <g id="text_7">
     <!-- Generations -->
     <g transform="translate(205.662344 335.860562)scale(0.1 -0.1)">
      <defs>
       <path d="M 59.515625 10.40625 
L 59.515625 29.984375 
L 43.40625 29.984375 
L 43.40625 38.09375 
L 69.28125 38.09375 
L 69.28125 6.78125 
Q 63.578125 2.734375 56.6875 0.65625 
Q 49.8125 -1.421875 42 -1.421875 
Q 24.90625 -1.421875 15.25 8.5625 
Q 5.609375 18.5625 5.609375 36.375 
Q 5.609375 54.25 15.25 64.234375 
Q 24.90625 74.21875 42 74.21875 
Q 49.125 74.21875 55.546875 72.453125 
Q 61.96875 70.703125 67.390625 67.28125 
L 67.390625 56.78125 
Q 61.921875 61.421875 55.765625 63.765625 
Q 49.609375 66.109375 42.828125 66.109375 
Q 29.4375 66.109375 22.71875 58.640625 
Q 16.015625 51.171875 16.015625 36.375 
Q 16.015625 21.625 22.71875 14.15625 
Q 29.4375 6.6875 42.828125 6.6875 
Q 48.046875 6.6875 52.140625 7.59375 
Q 56.25 8.5 59.515625 10.40625 
z
" id="DejaVuSans-71"/>
       <path d="M 56.203125 29.59375 
L 56.203125 25.203125 
L 14.890625 25.203125 
Q 15.484375 15.921875 20.484375 11.0625 
Q 25.484375 6.203125 34.421875 6.203125 
Q 39.59375 6.203125 44.453125 7.46875 
Q 49.3125 8.734375 54.109375 11.28125 
L 54.109375 2.78125 
Q 49.265625 0.734375 44.1875 -0.34375 
Q 39.109375 -1.421875 33.890625 -1.421875 
Q 20.796875 -1.421875 13.15625 6.1875 
Q 5.515625 13.8125 5.515625 26.8125 
Q 5.515625 40.234375 12.765625 48.109375 
Q 20.015625 56 32.328125 56 
Q 43.359375 56 49.78125 48.890625 
Q 56.203125 41.796875 56.203125 29.59375 
z
M 47.21875 32.234375 
Q 47.125 39.59375 43.09375 43.984375 
Q 39.0625 48.390625 32.421875 48.390625 
Q 24.90625 48.390625 20.390625 44.140625 
Q 15.875 39.890625 15.1875 32.171875 
z
" id="DejaVuSans-101"/>
       <path d="M 54.890625 33.015625 
L 54.890625 0 
L 45.90625 0 
L 45.90625 32.71875 
Q 45.90625 40.484375 42.875 44.328125 
Q 39.84375 48.1875 33.796875 48.1875 
Q 26.515625 48.1875 22.3125 43.546875 
Q 18.109375 38.921875 18.109375 30.90625 
L 18.109375 0 
L 9.078125 0 
L 9.078125 54.6875 
L 18.109375 54.6875 
L 18.109375 46.1875 
Q 21.34375 51.125 25.703125 53.5625 
Q 30.078125 56 35.796875 56 
Q 45.21875 56 50.046875 50.171875 
Q 54.890625 44.34375 54.890625 33.015625 
z
" id="DejaVuSans-110"/>
       <path d="M 41.109375 46.296875 
Q 39.59375 47.171875 37.8125 47.578125 
Q 36.03125 48 33.890625 48 
Q 26.265625 48 22.1875 43.046875 
Q 18.109375 38.09375 18.109375 28.8125 
L 18.109375 0 
L 9.078125 0 
L 9.078125 54.6875 
L 18.109375 54.6875 
L 18.109375 46.1875 
Q 20.953125 51.171875 25.484375 53.578125 
Q 30.03125 56 36.53125 56 
Q 37.453125 56 38.578125 55.875 
Q 39.703125 55.765625 41.0625 55.515625 
z
" id="DejaVuSans-114"/>
       <path d="M 34.28125 27.484375 
Q 23.390625 27.484375 19.1875 25 
Q 14.984375 22.515625 14.984375 16.5 
Q 14.984375 11.71875 18.140625 8.90625 
Q 21.296875 6.109375 26.703125 6.109375 
Q 34.1875 6.109375 38.703125 11.40625 
Q 43.21875 16.703125 43.21875 25.484375 
L 43.21875 27.484375 
z
M 52.203125 31.203125 
L 52.203125 0 
L 43.21875 0 
L 43.21875 8.296875 
Q 40.140625 3.328125 35.546875 0.953125 
Q 30.953125 -1.421875 24.3125 -1.421875 
Q 15.921875 -1.421875 10.953125 3.296875 
Q 6 8.015625 6 15.921875 
Q 6 25.140625 12.171875 29.828125 
Q 18.359375 34.515625 30.609375 34.515625 
L 43.21875 34.515625 
L 43.21875 35.40625 
Q 43.21875 41.609375 39.140625 45 
Q 35.0625 48.390625 27.6875 48.390625 
Q 23 48.390625 18.546875 47.265625 
Q 14.109375 46.140625 10.015625 43.890625 
L 10.015625 52.203125 
Q 14.9375 54.109375 19.578125 55.046875 
Q 24.21875 56 28.609375 56 
Q 40.484375 56 46.34375 49.84375 
Q 52.203125 43.703125 52.203125 31.203125 
z
" id="DejaVuSans-97"/>
       <path d="M 18.3125 70.21875 
L 18.3125 54.6875 
L 36.8125 54.6875 
L 36.8125 47.703125 
L 18.3125 47.703125 
L 18.3125 18.015625 
Q 18.3125 11.328125 20.140625 9.421875 
Q 21.96875 7.515625 27.59375 7.515625 
L 36.8125 7.515625 
L 36.8125 0 
L 27.59375 0 
Q 17.1875 0 13.234375 3.875 
Q 9.28125 7.765625 9.28125 18.015625 
L 9.28125 47.703125 
L 2.6875 47.703125 
L 2.6875 54.6875 
L 9.28125 54.6875 
L 9.28125 70.21875 
z
" id="DejaVuSans-116"/>
       <path d="M 9.421875 54.6875 
L 18.40625 54.6875 
L 18.40625 0 
L 9.421875 0 
z
M 9.421875 75.984375 
L 18.40625 75.984375 
L 18.40625 64.59375 
L 9.421875 64.59375 
z
" id="DejaVuSans-105"/>
       <path d="M 30.609375 48.390625 
Q 23.390625 48.390625 19.1875 42.75 
Q 14.984375 37.109375 14.984375 27.296875 
Q 14.984375 17.484375 19.15625 11.84375 
Q 23.34375 6.203125 30.609375 6.203125 
Q 37.796875 6.203125 41.984375 11.859375 
Q 46.1875 17.53125 46.1875 27.296875 
Q 46.1875 37.015625 41.984375 42.703125 
Q 37.796875 48.390625 30.609375 48.390625 
z
M 30.609375 56 
Q 42.328125 56 49.015625 48.375 
Q 55.71875 40.765625 55.71875 27.296875 
Q 55.71875 13.875 49.015625 6.21875 
Q 42.328125 -1.421875 30.609375 -1.421875 
Q 18.84375 -1.421875 12.171875 6.21875 
Q 5.515625 13.875 5.515625 27.296875 
Q 5.515625 40.765625 12.171875 48.375 
Q 18.84375 56 30.609375 56 
z
" id="DejaVuSans-111"/>
       <path d="M 44.28125 53.078125 
L 44.28125 44.578125 
Q 40.484375 46.53125 36.375 47.5 
Q 32.28125 48.484375 27.875 48.484375 
Q 21.1875 48.484375 17.84375 46.4375 
Q 14.5 44.390625 14.5 40.28125 
Q 14.5 37.15625 16.890625 35.375 
Q 19.28125 33.59375 26.515625 31.984375 
L 29.59375 31.296875 
Q 39.15625 29.25 43.1875 25.515625 
Q 47.21875 21.78125 47.21875 15.09375 
Q 47.21875 7.46875 41.1875 3.015625 
Q 35.15625 -1.421875 24.609375 -1.421875 
Q 20.21875 -1.421875 15.453125 -0.5625 
Q 10.6875 0.296875 5.421875 2 
L 5.421875 11.28125 
Q 10.40625 8.6875 15.234375 7.390625 
Q 20.0625 6.109375 24.8125 6.109375 
Q 31.15625 6.109375 34.5625 8.28125 
Q 37.984375 10.453125 37.984375 14.40625 
Q 37.984375 18.0625 35.515625 20.015625 
Q 33.0625 21.96875 24.703125 23.78125 
L 21.578125 24.515625 
Q 13.234375 26.265625 9.515625 29.90625 
Q 5.8125 33.546875 5.8125 39.890625 
Q 5.8125 47.609375 11.28125 51.796875 
Q 16.75 56 26.8125 56 
Q 31.78125 56 36.171875 55.265625 
Q 40.578125 54.546875 44.28125 53.078125 
z
" id="DejaVuSans-115"/>
      </defs>
      <use xlink:href="#DejaVuSans-71"/>
      <use x="77.490234" xlink:href="#DejaVuSans-101"/>
      <use x="139.013672" xlink:href="#DejaVuSans-110"/>
      <use x="202.392578" xlink:href="#DejaVuSans-101"/>
      <use x="263.916016" xlink:href="#DejaVuSans-114"/>
      <use x="305.029297" xlink:href="#DejaVuSans-97"/>
      <use x="366.308594" xlink:href="#DejaVuSans-116"/>
      <use x="405.517578" xlink:href="#DejaVuSans-105"/>
      <use x="433.300781" xlink:href="#DejaVuSans-111"/>
      <use x="494.482422" xlink:href="#DejaVuSans-110"/>
      <use x="557.861328" xlink:href="#DejaVuSans-115"/>
     </g>
    </g>
   </g>
   <g id="matplotlib.axis_2">
    <g id="ytick_1">
     <g id="line2d_13">
      <path clip-path="url(#pf40ca44b68)" d="M 57.6 295.488 
L 414.72 295.488 
" style="fill:none;stroke:#b0b0b0;stroke-linecap:square;stroke-width:0.8;"/>
     </g>
     <g id="line2d_14">
      <defs>
       <path d="M 0 0 
L -3.5 0 
" id="mc5c021458e" style="stroke:#000000;stroke-width:0.8;"/>
      </defs>
      <g>
       <use style="stroke:#000000;stroke-width:0.8;" x="57.6" xlink:href="#mc5c021458e" y="295.488"/>
      </g>
     </g>
     <g id="text_8">
      <!-- 0.0 -->
      <g transform="translate(34.696875 299.287219)scale(0.1 -0.1)">
       <defs>
        <path d="M 10.6875 12.40625 
L 21 12.40625 
L 21 0 
L 10.6875 0 
z
" id="DejaVuSans-46"/>
       </defs>
       <use xlink:href="#DejaVuSans-48"/>
       <use x="63.623047" xlink:href="#DejaVuSans-46"/>
       <use x="95.410156" xlink:href="#DejaVuSans-48"/>
      </g>
     </g>
    </g>
    <g id="ytick_2">
     <g id="line2d_15">
      <path clip-path="url(#pf40ca44b68)" d="M 57.6 255.168 
L 414.72 255.168 
" style="fill:none;stroke:#b0b0b0;stroke-linecap:square;stroke-width:0.8;"/>
     </g>
     <g id="line2d_16">
      <g>
       <use style="stroke:#000000;stroke-width:0.8;" x="57.6" xlink:href="#mc5c021458e" y="255.168"/>
      </g>
     </g>
     <g id="text_9">
      <!-- 0.5 -->
      <g transform="translate(34.696875 258.967219)scale(0.1 -0.1)">
       <defs>
        <path d="M 10.796875 72.90625 
L 49.515625 72.90625 
L 49.515625 64.59375 
L 19.828125 64.59375 
L 19.828125 46.734375 
Q 21.96875 47.46875 24.109375 47.828125 
Q 26.265625 48.1875 28.421875 48.1875 
Q 40.625 48.1875 47.75 41.5 
Q 54.890625 34.8125 54.890625 23.390625 
Q 54.890625 11.625 47.5625 5.09375 
Q 40.234375 -1.421875 26.90625 -1.421875 
Q 22.3125 -1.421875 17.546875 -0.640625 
Q 12.796875 0.140625 7.71875 1.703125 
L 7.71875 11.625 
Q 12.109375 9.234375 16.796875 8.0625 
Q 21.484375 6.890625 26.703125 6.890625 
Q 35.15625 6.890625 40.078125 11.328125 
Q 45.015625 15.765625 45.015625 23.390625 
Q 45.015625 31 40.078125 35.4375 
Q 35.15625 39.890625 26.703125 39.890625 
Q 22.75 39.890625 18.8125 39.015625 
Q 14.890625 38.140625 10.796875 36.28125 
z
" id="DejaVuSans-53"/>
       </defs>
       <use xlink:href="#DejaVuSans-48"/>
       <use x="63.623047" xlink:href="#DejaVuSans-46"/>
       <use x="95.410156" xlink:href="#DejaVuSans-53"/>
      </g>
     </g>
    </g>
    <g id="ytick_3">
     <g id="line2d_17">
      <path clip-path="url(#pf40ca44b68)" d="M 57.6 214.848 
L 414.72 214.848 
" style="fill:none;stroke:#b0b0b0;stroke-linecap:square;stroke-width:0.8;"/>
     </g>
     <g id="line2d_18">
      <g>
       <use style="stroke:#000000;stroke-width:0.8;" x="57.6" xlink:href="#mc5c021458e" y="214.848"/>
      </g>
     </g>
     <g id="text_10">
      <!-- 1.0 -->
      <g transform="translate(34.696875 218.647219)scale(0.1 -0.1)">
       <use xlink:href="#DejaVuSans-49"/>
       <use x="63.623047" xlink:href="#DejaVuSans-46"/>
       <use x="95.410156" xlink:href="#DejaVuSans-48"/>
      </g>
     </g>
    </g>
    <g id="ytick_4">
     <g id="line2d_19">
      <path clip-path="url(#pf40ca44b68)" d="M 57.6 174.528 
L 414.72 174.528 
" style="fill:none;stroke:#b0b0b0;stroke-linecap:square;stroke-width:0.8;"/>
     </g>
     <g id="line2d_20">
      <g>
       <use style="stroke:#000000;stroke-width:0.8;" x="57.6" xlink:href="#mc5c021458e" y="174.528"/>
      </g>
     </g>
     <g id="text_11">
      <!-- 1.5 -->
      <g transform="translate(34.696875 178.327219)scale(0.1 -0.1)">
       <use xlink:href="#DejaVuSans-49"/>
       <use x="63.623047" xlink:href="#DejaVuSans-46"/>
       <use x="95.410156" xlink:href="#DejaVuSans-53"/>
      </g>
     </g>
    </g>
    <g id="ytick_5">
     <g id="line2d_21">
      <path clip-path="url(#pf40ca44b68)" d="M 57.6 134.208 
L 414.72 134.208 
" style="fill:none;stroke:#b0b0b0;stroke-linecap:square;stroke-width:0.8;"/>
     </g>
     <g id="line2d_22">
      <g>
       <use style="stroke:#000000;stroke-width:0.8;" x="57.6" xlink:href="#mc5c021458e" y="134.208"/>
      </g>
     </g>
     <g id="text_12">
      <!-- 2.0 -->
      <g transform="translate(34.696875 138.007219)scale(0.1 -0.1)">
       <use xlink:href="#DejaVuSans-50"/>
       <use x="63.623047" xlink:href="#DejaVuSans-46"/>
       <use x="95.410156" xlink:href="#DejaVuSans-48"/>
      </g>
     </g>
    </g>
    <g id="ytick_6">
     <g id="line2d_23">
      <path clip-path="url(#pf40ca44b68)" d="M 57.6 93.888 
L 414.72 93.888 
" style="fill:none;stroke:#b0b0b0;stroke-linecap:square;stroke-width:0.8;"/>
     </g>
     <g id="line2d_24">
      <g>
       <use style="stroke:#000000;stroke-width:0.8;" x="57.6" xlink:href="#mc5c021458e" y="93.888"/>
      </g>
     </g>
     <g id="text_13">
      <!-- 2.5 -->
      <g transform="translate(34.696875 97.687219)scale(0.1 -0.1)">
       <use xlink:href="#DejaVuSans-50"/>
       <use x="63.623047" xlink:href="#DejaVuSans-46"/>
       <use x="95.410156" xlink:href="#DejaVuSans-53"/>
      </g>
     </g>
    </g>
    <g id="ytick_7">
     <g id="line2d_25">
      <path clip-path="url(#pf40ca44b68)" d="M 57.6 53.568 
L 414.72 53.568 
" style="fill:none;stroke:#b0b0b0;stroke-linecap:square;stroke-width:0.8;"/>
     </g>
     <g id="line2d_26">
      <g>
       <use style="stroke:#000000;stroke-width:0.8;" x="57.6" xlink:href="#mc5c021458e" y="53.568"/>
      </g>
     </g>
     <g id="text_14">
      <!-- 3.0 -->
      <g transform="translate(34.696875 57.367219)scale(0.1 -0.1)">
       <defs>
        <path d="M 40.578125 39.3125 
Q 47.65625 37.796875 51.625 33 
Q 55.609375 28.21875 55.609375 21.1875 
Q 55.609375 10.40625 48.1875 4.484375 
Q 40.765625 -1.421875 27.09375 -1.421875 
Q 22.515625 -1.421875 17.65625 -0.515625 
Q 12.796875 0.390625 7.625 2.203125 
L 7.625 11.71875 
Q 11.71875 9.328125 16.59375 8.109375 
Q 21.484375 6.890625 26.8125 6.890625 
Q 36.078125 6.890625 40.9375 10.546875 
Q 45.796875 14.203125 45.796875 21.1875 
Q 45.796875 27.640625 41.28125 31.265625 
Q 36.765625 34.90625 28.71875 34.90625 
L 20.21875 34.90625 
L 20.21875 43.015625 
L 29.109375 43.015625 
Q 36.375 43.015625 40.234375 45.921875 
Q 44.09375 48.828125 44.09375 54.296875 
Q 44.09375 59.90625 40.109375 62.90625 
Q 36.140625 65.921875 28.71875 65.921875 
Q 24.65625 65.921875 20.015625 65.03125 
Q 15.375 64.15625 9.8125 62.3125 
L 9.8125 71.09375 
Q 15.4375 72.65625 20.34375 73.4375 
Q 25.25 74.21875 29.59375 74.21875 
Q 40.828125 74.21875 47.359375 69.109375 
Q 53.90625 64.015625 53.90625 55.328125 
Q 53.90625 49.265625 50.4375 45.09375 
Q 46.96875 40.921875 40.578125 39.3125 
z
" id="DejaVuSans-51"/>
       </defs>
       <use xlink:href="#DejaVuSans-51"/>
       <use x="63.623047" xlink:href="#DejaVuSans-46"/>
       <use x="95.410156" xlink:href="#DejaVuSans-48"/>
      </g>
     </g>
    </g>
    <g id="text_15">
     <!-- Fitness -->
     <g transform="translate(28.617187 191.845187)rotate(-90)scale(0.1 -0.1)">
      <defs>
       <path d="M 9.8125 72.90625 
L 51.703125 72.90625 
L 51.703125 64.59375 
L 19.671875 64.59375 
L 19.671875 43.109375 
L 48.578125 43.109375 
L 48.578125 34.8125 
L 19.671875 34.8125 
L 19.671875 0 
L 9.8125 0 
z
" id="DejaVuSans-70"/>
      </defs>
      <use xlink:href="#DejaVuSans-70"/>
      <use x="50.269531" xlink:href="#DejaVuSans-105"/>
      <use x="78.052734" xlink:href="#DejaVuSans-116"/>
      <use x="117.261719" xlink:href="#DejaVuSans-110"/>
      <use x="180.640625" xlink:href="#DejaVuSans-101"/>
      <use x="242.164062" xlink:href="#DejaVuSans-115"/>
      <use x="294.263672" xlink:href="#DejaVuSans-115"/>
     </g>
    </g>
   </g>
   <g id="line2d_27">
    <path clip-path="url(#pf40ca44b68)" d="M 73.832727 291.456 
L 74.157707 290.6496 
L 74.482686 291.0528 
L 74.807666 294.2784 
L 75.132645 292.6656 
L 75.457625 294.2784 
L 75.782604 293.8752 
L 76.107584 294.2784 
L 76.432563 292.2624 
L 76.757543 294.2784 
L 77.082523 294.2784 
L 77.407502 293.0688 
L 77.732482 293.0688 
L 78.057461 292.6656 
L 78.382441 293.8752 
L 79.0324 293.8752 
L 79.357379 293.0688 
L 79.682359 293.0688 
L 80.332318 293.8752 
L 80.657297 291.456 
L 80.982277 293.8752 
L 81.307256 294.6816 
L 81.632236 291.456 
L 81.957215 292.2624 
L 82.282195 293.8752 
L 82.607174 293.867095 
L 82.932154 293.056643 
L 83.257133 291.0528 
L 83.582113 294.2784 
L 83.907093 294.685612 
L 84.232072 294.2784 
L 84.557052 292.651417 
L 84.882031 293.8752 
L 85.207011 294.272322 
L 85.53199 293.48203 
L 85.85697 291.877254 
L 86.181949 293.48203 
L 86.831908 295.086806 
L 87.156888 292.2624 
L 87.481867 293.472 
L 87.806847 293.0688 
L 88.131826 294.685612 
L 88.781785 292.2624 
L 89.106765 292.6656 
L 89.431744 291.877254 
L 90.081704 295.082774 
L 90.406683 294.272322 
L 90.731663 293.080836 
L 91.056642 293.0688 
L 91.381622 294.677548 
L 91.706601 291.456 
L 92.031581 294.2784 
L 92.35656 293.056643 
L 92.68154 292.278448 
L 93.006519 294.2784 
L 93.331499 292.246191 
L 93.656478 292.679642 
L 93.981458 292.679642 
L 94.306437 293.472 
L 94.631417 292.246191 
L 94.956396 291.47606 
L 95.281376 292.278448 
L 95.606355 293.461869 
L 95.931335 293.056643 
L 96.581294 293.0688 
L 96.906274 293.8752 
L 97.556233 293.0688 
L 97.881212 293.48203 
L 98.531171 292.6656 
L 98.856151 294.2784 
L 99.18113 291.456 
L 99.50611 293.0688 
L 99.831089 292.6656 
L 100.156069 293.48203 
L 100.481048 293.8752 
L 100.806028 293.472 
L 101.131007 294.6816 
L 101.455987 291.840965 
L 101.780966 293.0688 
L 102.105946 291.8592 
L 102.430925 293.867095 
L 102.755905 292.6656 
L 103.405864 293.472 
L 104.380803 292.2624 
L 104.705782 292.651417 
L 105.030762 291.877254 
L 105.355741 293.8752 
L 105.680721 292.246191 
L 106.0057 292.6656 
L 106.33068 294.284418 
L 106.655659 293.472 
L 106.980639 293.49196 
L 107.630598 294.2784 
L 107.955577 293.080836 
L 108.930516 293.0688 
L 109.255495 293.891168 
L 109.580475 293.080836 
L 109.905455 293.48203 
L 110.230434 293.472 
L 110.555414 291.0528 
L 110.880393 293.0688 
L 111.205373 293.48203 
L 111.530352 293.48203 
L 111.855332 292.6656 
L 112.180311 293.8752 
L 112.505291 294.2784 
L 112.83027 293.0688 
L 113.15525 294.284418 
L 113.480229 292.6656 
L 113.805209 291.8592 
L 114.130188 293.472 
L 114.780147 291.8592 
L 115.430106 294.2784 
L 116.080066 293.48203 
L 116.405045 292.6656 
L 116.730025 291.456 
L 117.055004 292.278448 
L 117.379984 294.2784 
L 117.704963 293.501793 
L 118.029943 294.6816 
L 118.354922 292.6656 
L 118.679902 293.461869 
L 119.004881 292.651417 
L 119.329861 292.651417 
L 119.65484 293.48203 
L 119.97982 290.6496 
L 120.304799 292.2624 
L 120.629779 291.456 
L 120.954758 293.472 
L 121.279738 293.472 
L 121.604717 293.080836 
L 121.929697 294.677548 
L 122.254676 294.284418 
L 122.579656 294.272322 
L 122.904636 293.472 
L 123.229615 293.080836 
L 123.554595 293.472 
L 123.879574 290.272478 
L 124.204554 293.472 
L 124.529533 294.685612 
L 124.854513 293.867095 
L 125.179492 293.8752 
L 125.504472 293.080836 
L 125.829451 291.47606 
L 126.154431 292.679642 
L 126.47941 291.0528 
L 126.80439 291.47606 
L 127.129369 290.6496 
L 127.454349 293.056643 
L 127.779328 291.456 
L 128.104308 291.895129 
L 128.429287 290.625286 
L 128.754267 294.284418 
L 129.079247 292.6656 
L 129.404226 293.883224 
L 129.729206 293.883224 
L 130.054185 294.2784 
L 130.379165 292.2624 
L 130.704144 293.48203 
L 131.029124 293.080836 
L 131.354103 291.8592 
L 131.679083 291.8592 
L 132.004062 290.6496 
L 132.329042 292.6656 
L 132.654021 291.877254 
L 132.979001 291.8592 
L 133.30398 293.472 
L 133.62896 292.6656 
L 133.953939 293.0688 
L 134.278919 292.2624 
L 134.603898 292.679642 
L 134.928878 293.883224 
L 135.578837 292.246191 
L 135.903817 293.867095 
L 136.228796 290.6496 
L 136.553776 293.0688 
L 136.878755 294.2784 
L 137.203735 293.0688 
L 137.528714 291.0528 
L 137.853694 293.883224 
L 138.178673 293.8752 
L 138.503653 294.2784 
L 138.828632 290.625286 
L 139.153612 293.8752 
L 139.478591 293.883224 
L 139.803571 293.080836 
L 140.12855 293.8752 
L 140.45353 293.056643 
L 140.778509 293.472 
L 141.103489 291.877254 
L 141.753448 293.461869 
L 142.403407 291.0528 
L 142.728387 291.0528 
L 143.053366 294.2784 
L 143.378346 294.2784 
L 143.703325 292.679642 
L 144.028305 292.693545 
L 144.353284 292.246191 
L 144.678264 294.272322 
L 145.003243 291.456 
L 145.328223 294.2784 
L 145.653202 290.2464 
L 145.978182 295.0848 
L 146.303161 293.8752 
L 146.628141 293.8752 
L 146.95312 293.472 
L 147.2781 293.472 
L 147.603079 293.867095 
L 147.928059 293.8752 
L 148.253038 292.6656 
L 148.578018 293.080836 
L 149.227977 293.080836 
L 149.552957 292.6656 
L 149.877936 293.8752 
L 150.202916 293.472 
L 150.527895 294.2784 
L 150.852875 293.0688 
L 151.177854 292.6656 
L 151.502834 293.8752 
L 151.827813 292.651417 
L 152.477772 293.48203 
L 152.802752 292.6656 
L 153.127731 293.0688 
L 153.77769 293.0688 
L 154.10267 292.6656 
L 154.427649 292.6656 
L 154.752629 291.840965 
L 155.077609 292.2624 
L 155.402588 293.883224 
L 155.727568 293.056643 
L 156.377527 292.246191 
L 156.702506 291.456 
L 157.027486 294.2784 
L 157.352465 291.47606 
L 157.677445 294.284418 
L 158.002424 293.0688 
L 158.327404 294.2784 
L 158.652383 293.48203 
L 158.977363 293.883224 
L 159.302342 293.472 
L 159.627322 293.49196 
L 159.952301 292.278448 
L 160.277281 294.685612 
L 160.60226 295.086806 
L 161.577199 291.0528 
L 161.902179 292.2624 
L 162.227158 292.2624 
L 162.552138 293.472 
L 162.877117 293.48203 
L 163.202097 292.246191 
L 163.527076 293.883224 
L 163.852056 293.0688 
L 164.177035 293.472 
L 164.502015 294.6816 
L 164.826994 294.284418 
L 165.151974 294.685612 
L 165.476953 292.6656 
L 166.126912 294.2784 
L 166.451892 294.284418 
L 166.776871 293.48203 
L 167.101851 292.246191 
L 167.42683 295.086806 
L 167.75181 293.8752 
L 168.07679 293.472 
L 168.401769 293.472 
L 168.726749 293.8752 
L 169.051728 294.685612 
L 169.376708 294.685612 
L 170.026667 292.651417 
L 170.351646 294.284418 
L 170.676626 293.0688 
L 171.001605 293.8752 
L 171.326585 293.472 
L 171.651564 294.685612 
L 171.976544 293.472 
L 172.301523 291.456 
L 172.626503 293.48203 
L 172.951482 292.6656 
L 173.276462 292.278448 
L 173.601441 293.883224 
L 173.926421 293.0688 
L 174.2514 293.8752 
L 174.57638 291.840965 
L 174.90136 292.6656 
L 175.226339 294.2784 
L 175.551319 291.074866 
L 175.876298 294.2784 
L 176.201278 292.679642 
L 176.851237 291.8592 
L 177.176216 294.2784 
L 177.501196 293.0688 
L 177.826175 293.472 
L 178.151155 292.278448 
L 178.801114 293.883224 
L 179.126093 293.8752 
L 179.451073 294.6816 
L 179.776052 292.278448 
L 180.101032 293.891168 
L 180.426011 293.0688 
L 180.750991 292.6656 
L 181.075971 291.096713 
L 181.72593 292.679642 
L 182.375889 294.689584 
L 183.025848 293.092752 
L 183.350827 291.8592 
L 183.675807 292.6656 
L 184.000786 291.8592 
L 184.650745 292.651417 
L 184.975725 294.6816 
L 185.300704 293.461869 
L 185.950663 292.679642 
L 186.275643 293.472 
L 186.600622 293.461869 
L 186.925602 294.2784 
L 187.250581 292.679642 
L 187.575561 291.8592 
L 187.900541 293.8752 
L 188.22552 293.867095 
L 188.5505 293.0688 
L 188.875479 292.651417 
L 189.200459 293.0688 
L 189.525438 293.8752 
L 189.850418 293.8752 
L 190.175397 294.685612 
L 190.500377 293.8752 
L 191.150336 293.8752 
L 191.475315 293.080836 
L 191.800295 293.867095 
L 192.125274 293.0688 
L 192.450254 293.461869 
L 192.775233 294.2784 
L 193.100213 293.0688 
L 193.425192 292.651417 
L 193.750172 294.284418 
L 194.075152 292.679642 
L 194.400131 293.8752 
L 194.725111 294.284418 
L 195.05009 290.625286 
L 195.700049 293.461869 
L 196.025029 293.472 
L 196.350008 293.056643 
L 196.674988 293.858909 
L 196.999967 292.229818 
L 197.324947 293.49196 
L 197.649926 293.858909 
L 197.974906 293.48203 
L 198.299885 291.495921 
L 198.624865 293.49196 
L 198.949844 294.284418 
L 199.274824 293.48203 
L 199.599803 291.8592 
L 199.924783 292.246191 
L 200.249762 291.435739 
L 200.574742 293.0688 
L 200.899722 293.461869 
L 201.224701 293.472 
L 201.549681 290.697505 
L 201.87466 291.435739 
L 202.524619 293.472 
L 202.849599 294.2784 
L 203.174578 292.2624 
L 203.499558 293.8752 
L 203.824537 293.056643 
L 204.149517 293.080836 
L 204.474496 293.883224 
L 204.799476 293.8752 
L 205.124455 293.080836 
L 205.449435 294.685612 
L 205.774414 293.080836 
L 206.099394 294.284418 
L 207.074333 293.080836 
L 207.399312 294.6816 
L 207.724292 293.0688 
L 208.049271 293.472 
L 208.374251 293.461869 
L 208.69923 293.883224 
L 209.02421 294.677548 
L 209.349189 295.0848 
L 209.674169 293.472 
L 209.999148 295.0848 
L 210.324128 294.2784 
L 210.649107 293.883224 
L 210.974087 293.0688 
L 211.299066 294.6816 
L 211.624046 292.2624 
L 211.949025 294.6816 
L 212.274005 293.0688 
L 212.598984 295.0848 
L 212.923964 293.8752 
L 213.248943 293.8752 
L 213.573923 292.2624 
L 213.898903 293.8752 
L 214.223882 293.0688 
L 214.548862 292.6656 
L 214.873841 293.883224 
L 215.198821 293.8752 
L 215.5238 293.472 
L 215.84878 293.472 
L 216.173759 292.6656 
L 216.498739 293.867095 
L 216.823718 293.080836 
L 217.148698 292.6656 
L 217.473677 293.472 
L 217.798657 292.2624 
L 218.123636 293.0688 
L 218.448616 292.246191 
L 218.773595 293.092752 
L 219.098575 293.461869 
L 219.423554 291.074866 
L 219.748534 293.461869 
L 220.073514 293.867095 
L 220.398493 293.0688 
L 220.723473 293.883224 
L 221.048452 293.044364 
L 221.373432 293.8752 
L 221.698411 290.6496 
L 222.023391 292.2624 
L 222.34837 290.2464 
L 222.67335 294.2784 
L 222.998329 292.679642 
L 223.323309 294.284418 
L 223.648288 294.272322 
L 224.298247 293.472 
L 224.623227 292.679642 
L 224.948206 294.266182 
L 225.273186 294.6816 
L 225.923145 293.8752 
L 226.248124 292.278448 
L 226.573104 293.8752 
L 226.898084 294.284418 
L 227.223063 291.877254 
L 227.548043 294.272322 
L 227.873022 293.0688 
L 228.198002 293.8752 
L 228.522981 292.278448 
L 228.847961 295.0848 
L 229.49792 293.472 
L 229.822899 293.472 
L 230.147879 293.0688 
L 230.472858 293.461869 
L 230.797838 293.472 
L 231.122817 293.0688 
L 231.772776 293.8752 
L 232.097756 293.461869 
L 232.422735 294.284418 
L 232.747715 293.472 
L 233.072695 293.472 
L 233.397674 293.8752 
L 233.722654 293.472 
L 234.047633 294.6816 
L 234.372613 293.0688 
L 234.697592 292.6656 
L 235.022572 293.0688 
L 235.347551 292.6656 
L 235.672531 294.2784 
L 235.99751 293.0688 
L 236.32249 293.461869 
L 236.647469 294.677548 
L 236.972449 293.472 
L 237.297428 293.080836 
L 237.622408 294.284418 
L 237.947387 293.472 
L 238.272367 293.883224 
L 238.597346 293.883224 
L 239.247305 294.685612 
L 239.572285 290.6496 
L 239.897265 291.074866 
L 240.222244 294.2784 
L 240.547224 294.284418 
L 240.872203 293.056643 
L 241.197183 293.080836 
L 241.522162 293.867095 
L 242.172121 292.2624 
L 242.497101 292.693545 
L 242.82208 292.679642 
L 243.14706 293.461869 
L 243.472039 291.47606 
L 243.797019 294.6816 
L 244.121998 291.456 
L 244.446978 294.2784 
L 244.771957 295.0848 
L 245.096937 295.0848 
L 245.421916 292.246191 
L 245.746896 293.883224 
L 246.396855 293.891168 
L 246.721835 291.8592 
L 247.046814 292.2624 
L 247.371794 293.867095 
L 247.696773 293.8752 
L 248.021753 292.6656 
L 248.346732 293.0688 
L 248.671712 291.8592 
L 248.996691 292.6656 
L 249.321671 294.2784 
L 249.64665 294.2784 
L 249.97163 295.086806 
L 250.296609 293.472 
L 250.946568 294.272322 
L 251.596527 293.461869 
L 252.246486 295.0848 
L 252.571466 292.246191 
L 252.896446 292.2624 
L 253.221425 292.6656 
L 253.546405 293.472 
L 253.871384 290.6496 
L 254.196364 291.435739 
L 254.521343 294.272322 
L 254.846323 293.48203 
L 255.171302 292.278448 
L 255.496282 292.651417 
L 255.821261 291.8592 
L 256.146241 292.2624 
L 256.47122 290.673672 
L 256.7962 293.49196 
L 257.121179 293.8752 
L 257.446159 293.48203 
L 257.771138 293.472 
L 258.421097 294.2784 
L 258.746077 293.48203 
L 259.071057 293.8752 
L 259.396036 293.0688 
L 259.721016 293.472 
L 260.045995 291.456 
L 260.370975 291.8592 
L 260.695954 292.6656 
L 261.020934 293.883224 
L 261.345913 293.891168 
L 261.670893 291.47606 
L 262.320852 293.48203 
L 262.645831 291.47606 
L 262.970811 294.6816 
L 263.29579 291.877254 
L 263.62077 292.6656 
L 263.945749 293.8752 
L 264.270729 293.472 
L 264.595708 293.48203 
L 264.920688 294.272322 
L 265.245667 292.278448 
L 265.570647 293.0688 
L 265.895627 294.6816 
L 266.220606 293.080836 
L 266.545586 292.693545 
L 266.870565 293.883224 
L 267.195545 292.2624 
L 267.520524 292.2624 
L 268.170483 294.685612 
L 268.495463 292.278448 
L 268.820442 292.693545 
L 269.145422 295.088792 
L 269.795381 293.472 
L 270.12036 293.48203 
L 270.44534 293.883224 
L 270.770319 292.6656 
L 271.095299 293.8752 
L 271.420278 293.0688 
L 271.745258 293.0688 
L 272.070238 293.883224 
L 273.045176 295.0848 
L 273.370156 295.0848 
L 274.020115 293.472 
L 274.670074 293.472 
L 274.995053 294.284418 
L 275.320033 294.284418 
L 275.645012 293.056643 
L 275.969992 293.080836 
L 276.294971 292.2624 
L 276.619951 293.056643 
L 276.94493 291.8592 
L 277.594889 293.883224 
L 277.919869 291.47606 
L 278.569828 295.086806 
L 278.894808 294.2784 
L 279.219787 291.47606 
L 279.544767 293.472 
L 279.869746 294.2784 
L 280.194726 294.272322 
L 280.844685 291.456 
L 281.169664 292.2624 
L 281.494644 291.840965 
L 282.144603 294.2784 
L 282.469582 293.8752 
L 282.794562 292.229818 
L 283.119541 292.679642 
L 283.444521 294.266182 
L 283.7695 292.2624 
L 284.09448 293.883224 
L 284.419459 293.891168 
L 284.744439 293.0688 
L 285.069419 291.8592 
L 285.394398 293.472 
L 285.719378 291.877254 
L 286.369337 294.6816 
L 286.694316 292.6656 
L 287.344275 294.6816 
L 287.669255 293.8752 
L 287.994234 295.088792 
L 288.319214 295.082774 
L 288.644193 293.883224 
L 288.969173 293.883224 
L 289.294152 294.6816 
L 289.619132 293.0688 
L 289.944111 293.883224 
L 290.269091 293.092752 
L 290.59407 294.685612 
L 291.244029 292.6656 
L 291.569009 294.284418 
L 292.218968 291.895129 
L 292.543948 293.0688 
L 292.868927 293.0688 
L 293.193907 292.6656 
L 293.843866 294.685612 
L 294.168845 294.272322 
L 294.493825 292.6656 
L 294.818804 293.461869 
L 295.143784 293.48203 
L 295.468763 293.0688 
L 295.793743 293.472 
L 296.118722 292.2624 
L 296.443702 293.472 
L 296.768681 292.278448 
L 297.41864 294.2784 
L 297.74362 293.080836 
L 298.0686 293.472 
L 298.393579 292.278448 
L 298.718559 293.472 
L 299.043538 293.8752 
L 299.368518 293.056643 
L 299.693497 293.0688 
L 300.018477 293.472 
L 300.343456 294.284418 
L 300.668436 293.883224 
L 300.993415 293.056643 
L 301.318395 293.8752 
L 301.643374 292.679642 
L 302.293333 294.6816 
L 302.618313 293.461869 
L 302.943292 294.2784 
L 303.268272 294.284418 
L 303.593251 293.883224 
L 303.918231 293.8752 
L 304.24321 293.080836 
L 304.56819 292.651417 
L 304.89317 293.461869 
L 305.218149 293.867095 
L 305.543129 294.689584 
L 305.868108 293.8752 
L 306.193088 294.6816 
L 306.518067 294.685612 
L 306.843047 291.895129 
L 307.168026 293.48203 
L 307.493006 294.284418 
L 307.817985 293.8752 
L 308.142965 293.0688 
L 308.467944 292.6656 
L 308.792924 292.6656 
L 309.117903 293.883224 
L 309.442883 293.891168 
L 309.767862 294.6816 
L 310.092842 293.8752 
L 310.417821 294.284418 
L 310.742801 293.472 
L 311.067781 293.0688 
L 311.39276 294.290376 
L 311.71774 293.056643 
L 312.367699 293.883224 
L 312.692678 293.883224 
L 313.017658 294.284418 
L 313.342637 293.883224 
L 313.667617 293.056643 
L 313.992596 293.8752 
L 314.642555 293.0688 
L 315.292514 293.883224 
L 315.617494 295.082774 
L 316.592432 292.6656 
L 316.917412 295.082774 
L 317.567371 293.0688 
L 317.892351 294.6816 
L 318.21733 294.677548 
L 318.54231 294.2784 
L 318.867289 294.2784 
L 319.192269 293.8752 
L 319.517248 294.2784 
L 320.167207 294.2784 
L 320.492187 293.472 
L 320.817166 293.0688 
L 321.142146 294.2784 
L 321.467125 293.0688 
L 321.792105 295.086806 
L 322.117084 295.0848 
L 322.442064 292.679642 
L 322.767043 293.8752 
L 323.092023 293.472 
L 323.417002 293.472 
L 323.741982 294.2784 
L 324.066962 293.461869 
L 324.391941 293.867095 
L 324.716921 293.8752 
L 325.0419 294.6816 
L 325.691859 292.651417 
L 326.016839 293.461869 
L 326.341818 293.0688 
L 326.666798 293.0688 
L 326.991777 295.086806 
L 327.316757 291.456 
L 327.641736 293.48203 
L 327.966716 293.056643 
L 328.291695 293.867095 
L 328.616675 293.8752 
L 328.941654 294.685612 
L 329.266634 293.48203 
L 329.591613 293.48203 
L 329.916593 292.693545 
L 330.241572 294.284418 
L 330.566552 293.0688 
L 330.891532 292.679642 
L 331.216511 293.891168 
L 331.541491 293.883224 
L 331.86647 293.48203 
L 332.19145 292.278448 
L 332.516429 293.472 
L 332.841409 293.891168 
L 333.166388 292.651417 
L 333.491368 291.877254 
L 333.816347 293.48203 
L 334.141327 292.679642 
L 334.466306 293.48203 
L 334.791286 293.0688 
L 335.116265 293.891168 
L 335.441245 292.2624 
L 335.766224 293.451636 
L 336.091204 293.056643 
L 336.416183 294.272322 
L 336.741163 292.651417 
L 337.066143 293.080836 
L 337.391122 291.435739 
L 337.716102 294.689584 
L 338.041081 293.891168 
L 338.366061 294.2784 
L 338.69104 291.877254 
L 339.01602 293.48203 
L 339.340999 293.080836 
L 339.665979 293.858909 
L 339.990958 294.2784 
L 340.315938 292.679642 
L 340.640917 293.0688 
L 340.965897 292.679642 
L 341.615856 294.284418 
L 341.940835 293.883224 
L 342.265815 293.867095 
L 342.590794 293.461869 
L 342.915774 292.679642 
L 343.240753 292.2624 
L 343.890713 294.685612 
L 344.215692 292.2624 
L 344.540672 294.685612 
L 344.865651 293.8752 
L 345.190631 293.867095 
L 345.51561 293.0688 
L 345.84059 293.0688 
L 346.165569 294.2784 
L 346.490549 293.8752 
L 346.815528 294.6816 
L 347.140508 295.0848 
L 347.465487 293.461869 
L 347.790467 293.8752 
L 348.115446 293.867095 
L 348.440426 293.461869 
L 348.765405 294.6816 
L 349.090385 293.472 
L 349.415364 293.472 
L 349.740344 294.6816 
L 350.065324 295.086806 
L 350.390303 292.2624 
L 351.040262 293.080836 
L 351.365242 292.679642 
L 351.690221 293.056643 
L 352.015201 295.082774 
L 352.34018 293.49196 
L 352.66516 293.883224 
L 352.990139 293.0688 
L 353.315119 292.6656 
L 353.640098 293.0688 
L 353.965078 294.284418 
L 354.290057 292.6656 
L 354.615037 293.472 
L 354.940016 292.6656 
L 355.264996 294.284418 
L 355.589975 293.092752 
L 355.914955 293.0688 
L 356.239934 293.49196 
L 356.564914 293.472 
L 356.889894 292.2624 
L 357.214873 293.48203 
L 358.189812 293.461869 
L 358.514791 294.2784 
L 358.839771 294.677548 
L 359.16475 293.0688 
L 359.48973 293.49196 
L 360.139689 291.8592 
L 360.464668 294.2784 
L 360.789648 293.867095 
L 361.114627 295.088792 
L 361.439607 294.266182 
L 361.764586 293.080836 
L 362.089566 293.0688 
L 362.414545 294.677548 
L 362.739525 293.092752 
L 363.064505 294.272322 
L 363.389484 293.48203 
L 363.714464 294.685612 
L 364.039443 292.679642 
L 364.364423 294.290376 
L 364.689402 293.092752 
L 365.014382 293.461869 
L 365.339361 294.677548 
L 365.664341 293.48203 
L 365.98932 294.272322 
L 366.3143 293.472 
L 366.639279 293.472 
L 366.964259 290.272478 
L 367.289238 293.472 
L 367.614218 291.030513 
L 367.939197 293.883224 
L 368.264177 292.679642 
L 368.589156 294.284418 
L 368.914136 293.472 
L 369.239115 292.246191 
L 369.564095 294.2784 
L 369.889075 293.472 
L 370.214054 293.472 
L 370.539034 292.246191 
L 370.864013 293.48203 
L 371.188993 293.080836 
L 371.513972 294.6816 
L 371.838952 293.883224 
L 372.163931 294.677548 
L 372.81389 291.8592 
L 373.13887 294.685612 
L 373.463849 294.6816 
L 373.788829 292.2624 
L 374.113808 294.6816 
L 374.438788 294.272322 
L 374.763767 293.461869 
L 375.088747 293.891168 
L 375.738706 292.2624 
L 376.063686 291.074866 
L 376.388665 293.891168 
L 376.713645 293.461869 
L 377.038624 294.284418 
L 377.363604 293.883224 
L 377.688583 293.0688 
L 378.013563 294.272322 
L 378.338542 293.080836 
L 378.663522 295.0848 
L 378.988501 293.8752 
L 379.313481 293.472 
L 379.63846 293.49196 
L 379.96344 293.092752 
L 380.288419 294.2784 
L 380.613399 294.677548 
L 380.938378 293.48203 
L 381.263358 293.472 
L 381.588337 292.679642 
L 381.913317 292.278448 
L 382.238296 293.883224 
L 382.563276 294.2784 
L 382.888256 293.867095 
L 383.213235 293.867095 
L 383.538215 292.651417 
L 383.863194 295.488 
L 384.188174 295.086806 
L 384.513153 293.472 
L 384.838133 293.883224 
L 385.163112 293.891168 
L 385.488092 292.651417 
L 385.813071 293.48203 
L 386.138051 293.472 
L 386.46303 295.0848 
L 386.78801 292.70731 
L 387.112989 293.891168 
L 387.437969 292.637091 
L 387.762948 293.48203 
L 388.087928 294.6816 
L 388.412907 294.677548 
L 388.737887 295.086806 
L 389.062867 293.0688 
L 389.387846 294.284418 
L 389.712826 293.472 
L 390.362785 293.472 
L 390.687764 293.8752 
L 391.012744 293.48203 
L 391.337723 291.074866 
L 391.662703 293.056643 
L 391.987682 293.0688 
L 392.312662 294.290376 
L 392.637641 293.056643 
L 392.962621 292.70731 
L 393.2876 295.488 
L 393.61258 293.472 
L 393.937559 292.6656 
L 394.262539 292.693545 
L 394.587518 294.6816 
L 394.912498 293.8752 
L 395.237477 294.685612 
L 395.562457 292.2624 
L 395.887437 293.867095 
L 396.212416 293.891168 
L 396.537396 292.6656 
L 396.862375 293.8752 
L 397.187355 293.48203 
L 397.512334 293.472 
L 397.837314 292.246191 
L 398.162293 294.685612 
L 398.487273 294.6816 
L 398.487273 294.6816 
" style="fill:none;stroke:#0000ff;stroke-linecap:square;stroke-width:1.5;"/>
   </g>
   <g id="line2d_28">
    <path clip-path="url(#pf40ca44b68)" d="M 73.832727 273.880919 
L 74.157707 271.498661 
L 74.482686 272.668472 
L 74.807666 284.47641 
L 75.132645 277.8456 
L 75.457625 284.47641 
L 75.782604 282.5856 
L 76.107584 284.47641 
L 76.432563 276.460252 
L 76.757543 284.47641 
L 77.082523 284.47641 
L 77.407502 279.312646 
L 77.732482 279.312646 
L 78.057461 277.8456 
L 78.382441 282.5856 
L 79.0324 282.5856 
L 79.357379 279.312646 
L 79.682359 279.312646 
L 80.332318 282.5856 
L 80.657297 272.119207 
L 80.982277 282.5856 
L 81.307256 286.658021 
L 81.632236 272.119207 
L 81.957215 276.460252 
L 82.282195 282.5856 
L 82.607174 282.549746 
L 82.932154 279.267042 
L 83.257133 272.668472 
L 83.582113 284.47641 
L 83.907093 286.681816 
L 84.232072 284.47641 
L 84.557052 277.795582 
L 84.882031 282.5856 
L 85.207011 284.44611 
L 85.53199 280.92267 
L 85.85697 275.199931 
L 86.181949 280.92267 
L 86.506929 284.506471 
L 86.831908 289.413066 
L 87.156888 276.460252 
L 87.481867 280.882084 
L 87.806847 279.312646 
L 88.131826 286.681816 
L 88.781785 276.460252 
L 89.106765 277.8456 
L 89.431744 275.199931 
L 89.756724 280.841173 
L 90.081704 289.380737 
L 90.731663 279.357889 
L 91.056642 279.312646 
L 91.381622 286.634039 
L 91.706601 273.880919 
L 92.031581 284.47641 
L 92.35656 277.072026 
L 92.68154 276.514024 
L 93.006519 284.47641 
L 93.331499 276.406047 
L 93.656478 277.89522 
L 93.981458 277.89522 
L 94.306437 280.882084 
L 94.631417 276.406047 
L 94.956396 273.942458 
L 95.281376 276.514024 
L 95.606355 280.841173 
L 95.931335 279.267042 
L 96.581294 279.312646 
L 96.906274 282.5856 
L 97.556233 279.312646 
L 97.881212 280.92267 
L 98.531171 277.8456 
L 98.856151 284.47641 
L 99.18113 273.880919 
L 99.50611 277.123272 
L 99.831089 277.8456 
L 100.156069 280.92267 
L 100.481048 282.5856 
L 100.806028 280.882084 
L 101.131007 286.658021 
L 101.455987 273.235833 
L 101.780966 279.312646 
L 102.105946 275.142195 
L 102.430925 282.549746 
L 102.755905 275.793715 
L 103.080885 277.174112 
L 103.405864 280.882084 
L 104.380803 276.460252 
L 104.705782 277.795582 
L 105.030762 275.199931 
L 105.355741 282.5856 
L 105.680721 276.406047 
L 106.0057 277.8456 
L 106.33068 284.506471 
L 106.655659 280.882084 
L 106.980639 280.962936 
L 107.305618 280.00137 
L 107.630598 284.47641 
L 107.955577 275.255897 
L 108.280557 279.267042 
L 108.605536 279.402773 
L 108.930516 279.312646 
L 109.255495 282.656462 
L 109.580475 277.174112 
L 109.905455 280.92267 
L 110.230434 280.882084 
L 110.555414 272.668472 
L 110.880393 279.312646 
L 111.205373 280.92267 
L 111.530352 280.92267 
L 111.855332 277.8456 
L 112.180311 282.5856 
L 112.505291 284.47641 
L 112.83027 279.312646 
L 113.15525 284.506471 
L 113.480229 275.793715 
L 113.805209 275.142195 
L 114.130188 280.882084 
L 114.455168 277.89522 
L 114.780147 273.298857 
L 115.430106 284.47641 
L 116.080066 280.92267 
L 116.730025 273.880919 
L 117.055004 276.514024 
L 117.379984 284.47641 
L 117.704963 281.002885 
L 118.029943 286.658021 
L 118.354922 275.793715 
L 118.679902 280.841173 
L 119.004881 277.795582 
L 119.329861 277.795582 
L 119.65484 280.92267 
L 119.97982 269.870126 
L 120.304799 276.460252 
L 120.629779 269.006774 
L 120.954758 280.882084 
L 121.279738 280.882084 
L 121.604717 279.357889 
L 121.929697 286.634039 
L 122.254676 284.506471 
L 122.579656 284.44611 
L 122.904636 280.882084 
L 123.229615 279.357889 
L 123.554595 280.882084 
L 123.879574 270.438717 
L 124.204554 280.882084 
L 124.529533 286.681816 
L 124.854513 282.549746 
L 125.179492 282.5856 
L 125.504472 279.357889 
L 125.829451 273.942458 
L 126.154431 277.89522 
L 126.47941 272.668472 
L 126.80439 273.942458 
L 127.129369 271.498661 
L 127.454349 279.267042 
L 127.779328 272.119207 
L 128.104308 273.423402 
L 128.429287 271.429369 
L 128.754267 284.506471 
L 129.079247 277.8456 
L 129.404226 282.621171 
L 129.729206 282.621171 
L 130.054185 284.47641 
L 130.379165 276.460252 
L 130.704144 280.92267 
L 131.029124 279.357889 
L 131.354103 275.142195 
L 131.679083 275.142195 
L 132.004062 271.498661 
L 132.329042 277.8456 
L 132.654021 275.199931 
L 132.979001 275.142195 
L 133.30398 280.882084 
L 133.62896 277.8456 
L 134.278919 276.460252 
L 134.603898 277.89522 
L 134.928878 282.621171 
L 135.578837 276.406047 
L 135.903817 282.549746 
L 136.228796 271.498661 
L 136.878755 284.47641 
L 137.528714 272.668472 
L 137.853694 282.621171 
L 138.178673 282.5856 
L 138.503653 284.47641 
L 138.828632 269.796506 
L 139.153612 282.5856 
L 139.478591 282.621171 
L 139.803571 279.357889 
L 140.12855 282.5856 
L 140.45353 279.267042 
L 140.778509 280.882084 
L 141.103489 275.199931 
L 141.753448 280.841173 
L 142.403407 270.977651 
L 142.728387 272.668472 
L 143.053366 284.47641 
L 143.378346 284.47641 
L 143.703325 277.89522 
L 144.028305 277.944446 
L 144.353284 276.406047 
L 144.678264 284.44611 
L 145.003243 273.880919 
L 145.328223 284.47641 
L 145.653202 270.366555 
L 145.978182 289.396964 
L 146.303161 282.5856 
L 146.628141 282.5856 
L 146.95312 280.882084 
L 147.2781 280.882084 
L 147.603079 282.549746 
L 147.928059 282.5856 
L 148.253038 277.8456 
L 148.578018 279.357889 
L 149.227977 279.357889 
L 149.552957 277.8456 
L 149.877936 282.5856 
L 150.202916 278.520944 
L 150.527895 284.47641 
L 151.177854 275.793715 
L 151.502834 282.5856 
L 151.827813 277.795582 
L 152.477772 280.92267 
L 152.802752 277.8456 
L 153.127731 277.123272 
L 153.452711 279.357889 
L 153.77769 279.312646 
L 154.10267 277.8456 
L 154.427649 277.8456 
L 154.752629 275.083995 
L 155.077609 276.460252 
L 155.402588 282.621171 
L 155.727568 279.267042 
L 156.377527 276.406047 
L 156.702506 272.119207 
L 157.027486 284.47641 
L 157.352465 273.942458 
L 157.677445 284.506471 
L 158.002424 279.312646 
L 158.327404 284.47641 
L 158.652383 280.92267 
L 158.977363 282.621171 
L 159.302342 280.882084 
L 159.627322 280.962936 
L 159.952301 276.514024 
L 160.277281 286.681816 
L 160.60226 289.413066 
L 161.252219 277.89522 
L 161.577199 272.668472 
L 161.902179 276.460252 
L 162.227158 276.460252 
L 162.552138 280.882084 
L 162.877117 280.92267 
L 163.202097 274.462349 
L 163.527076 282.621171 
L 163.852056 279.312646 
L 164.177035 280.882084 
L 164.502015 286.658021 
L 164.826994 284.506471 
L 165.151974 286.681816 
L 165.476953 277.8456 
L 166.126912 284.47641 
L 166.451892 284.506471 
L 167.101851 276.406047 
L 167.42683 289.413066 
L 167.75181 282.5856 
L 168.07679 280.882084 
L 168.401769 280.882084 
L 168.726749 282.5856 
L 169.051728 286.681816 
L 169.376708 286.681816 
L 169.701687 280.882084 
L 170.026667 277.795582 
L 170.351646 284.506471 
L 170.676626 279.312646 
L 171.001605 282.5856 
L 171.326585 280.882084 
L 171.651564 286.681816 
L 171.976544 278.520944 
L 172.301523 273.880919 
L 172.626503 280.92267 
L 173.276462 274.580379 
L 173.601441 282.621171 
L 173.926421 279.312646 
L 174.2514 282.5856 
L 174.57638 275.083995 
L 174.90136 277.8456 
L 175.226339 284.47641 
L 175.551319 272.733672 
L 175.876298 284.47641 
L 176.201278 277.89522 
L 176.526257 276.460252 
L 176.851237 273.298857 
L 177.176216 284.47641 
L 177.501196 279.312646 
L 177.826175 280.882084 
L 178.151155 276.514024 
L 178.801114 282.621171 
L 179.126093 282.5856 
L 179.451073 286.658021 
L 179.776052 276.514024 
L 180.101032 282.656462 
L 180.426011 279.312646 
L 180.750991 277.8456 
L 181.075971 271.116366 
L 181.40095 275.199931 
L 181.72593 275.848608 
L 182.050909 282.656462 
L 182.375889 286.705426 
L 183.350827 275.142195 
L 183.675807 277.8456 
L 184.000786 275.142195 
L 184.650745 277.795582 
L 184.975725 286.658021 
L 185.300704 280.841173 
L 185.950663 277.89522 
L 186.275643 280.882084 
L 186.600622 280.841173 
L 186.925602 284.47641 
L 187.250581 277.89522 
L 187.575561 275.142195 
L 187.900541 282.5856 
L 188.22552 282.549746 
L 188.5505 279.312646 
L 188.875479 277.795582 
L 189.200459 279.312646 
L 189.525438 282.5856 
L 189.850418 282.5856 
L 190.175397 286.681816 
L 190.500377 282.5856 
L 191.150336 282.5856 
L 191.475315 279.357889 
L 191.800295 282.549746 
L 192.125274 279.312646 
L 192.450254 280.841173 
L 192.775233 284.47641 
L 193.100213 279.312646 
L 193.425192 277.795582 
L 193.750172 284.506471 
L 194.075152 277.89522 
L 194.400131 282.5856 
L 194.725111 284.506471 
L 195.05009 271.429369 
L 195.37507 274.580379 
L 195.700049 280.841173 
L 196.025029 280.882084 
L 196.350008 279.267042 
L 196.674988 282.513604 
L 196.999967 276.351404 
L 197.324947 280.962936 
L 197.649926 282.513604 
L 197.974906 280.92267 
L 198.299885 274.003506 
L 198.624865 280.962936 
L 198.949844 284.506471 
L 199.274824 280.92267 
L 199.599803 273.298857 
L 199.924783 274.462349 
L 200.249762 273.818885 
L 200.574742 279.312646 
L 200.899722 280.841173 
L 201.224701 280.882084 
L 201.549681 271.635588 
L 201.87466 273.818885 
L 202.524619 280.882084 
L 202.849599 284.47641 
L 203.174578 276.460252 
L 203.499558 282.5856 
L 203.824537 279.267042 
L 204.149517 279.357889 
L 204.474496 282.621171 
L 204.799476 282.5856 
L 205.124455 279.357889 
L 205.449435 286.681816 
L 205.774414 279.357889 
L 206.099394 284.506471 
L 207.074333 279.357889 
L 207.399312 286.658021 
L 207.724292 279.312646 
L 208.049271 280.882084 
L 208.374251 280.841173 
L 208.69923 282.621171 
L 209.349189 289.396964 
L 209.674169 280.882084 
L 209.999148 289.396964 
L 210.324128 284.47641 
L 210.649107 282.621171 
L 210.974087 279.312646 
L 211.299066 286.658021 
L 211.624046 276.460252 
L 211.949025 286.658021 
L 212.274005 279.312646 
L 212.598984 289.396964 
L 212.923964 282.5856 
L 213.248943 282.5856 
L 213.573923 276.460252 
L 213.898903 282.5856 
L 214.223882 279.312646 
L 214.548862 277.8456 
L 214.873841 282.621171 
L 215.198821 282.5856 
L 215.5238 280.882084 
L 215.84878 280.882084 
L 216.173759 277.8456 
L 216.498739 282.549746 
L 216.823718 279.357889 
L 217.148698 277.8456 
L 217.473677 280.882084 
L 217.798657 276.460252 
L 218.123636 279.312646 
L 218.448616 276.406047 
L 218.773595 279.402773 
L 219.098575 280.841173 
L 219.423554 272.733672 
L 219.748534 280.841173 
L 220.073514 282.549746 
L 220.398493 279.312646 
L 220.723473 282.621171 
L 221.048452 279.221069 
L 221.373432 282.5856 
L 221.698411 271.498661 
L 222.023391 276.460252 
L 222.34837 268.79328 
L 222.67335 284.47641 
L 222.998329 277.89522 
L 223.323309 284.506471 
L 223.648288 284.44611 
L 224.298247 280.882084 
L 224.623227 277.89522 
L 224.948206 284.415569 
L 225.273186 286.658021 
L 225.923145 282.5856 
L 226.248124 276.514024 
L 226.573104 282.5856 
L 226.898084 284.506471 
L 227.223063 275.199931 
L 227.548043 284.44611 
L 227.873022 279.312646 
L 228.198002 282.5856 
L 228.522981 274.580379 
L 228.847961 289.396964 
L 229.49792 280.882084 
L 229.822899 280.882084 
L 230.147879 279.312646 
L 230.472858 280.841173 
L 230.797838 280.882084 
L 231.122817 279.312646 
L 231.772776 282.5856 
L 232.097756 280.841173 
L 232.422735 284.506471 
L 232.747715 280.882084 
L 233.072695 280.882084 
L 233.397674 282.5856 
L 233.722654 280.882084 
L 234.047633 286.658021 
L 234.372613 279.312646 
L 234.697592 277.8456 
L 235.022572 279.312646 
L 235.347551 277.8456 
L 235.672531 284.47641 
L 235.99751 279.312646 
L 236.32249 280.841173 
L 236.647469 286.634039 
L 236.972449 280.882084 
L 237.297428 277.174112 
L 237.622408 284.506471 
L 237.947387 280.882084 
L 238.272367 280.043484 
L 238.922326 284.44611 
L 239.247305 286.681816 
L 239.572285 271.498661 
L 239.897265 272.733672 
L 240.222244 284.47641 
L 240.547224 284.506471 
L 240.872203 279.267042 
L 241.197183 279.357889 
L 241.522162 282.549746 
L 242.172121 276.460252 
L 242.497101 275.903066 
L 242.82208 275.848608 
L 243.14706 280.841173 
L 243.472039 273.942458 
L 243.797019 286.658021 
L 244.121998 273.880919 
L 244.446978 284.47641 
L 244.771957 289.396964 
L 245.096937 289.396964 
L 245.421916 276.406047 
L 245.746896 282.621171 
L 246.396855 282.656462 
L 246.721835 275.142195 
L 247.046814 276.460252 
L 247.371794 282.549746 
L 247.696773 282.5856 
L 248.021753 277.8456 
L 248.346732 279.312646 
L 248.671712 275.142195 
L 248.996691 277.8456 
L 249.321671 284.47641 
L 249.64665 284.47641 
L 249.97163 289.413066 
L 250.296609 280.882084 
L 250.946568 284.44611 
L 251.596527 280.841173 
L 251.921507 284.47641 
L 252.246486 289.396964 
L 252.571466 276.406047 
L 252.896446 276.460252 
L 253.221425 277.8456 
L 253.546405 280.882084 
L 253.871384 271.498661 
L 254.196364 273.818885 
L 254.521343 284.44611 
L 255.171302 276.514024 
L 255.496282 277.795582 
L 255.821261 273.298857 
L 256.146241 276.460252 
L 256.47122 271.567398 
L 256.7962 280.962936 
L 257.121179 282.5856 
L 257.446159 280.92267 
L 257.771138 280.882084 
L 258.421097 284.47641 
L 258.746077 280.92267 
L 259.071057 282.5856 
L 259.396036 279.312646 
L 259.721016 280.882084 
L 260.045995 273.880919 
L 260.370975 275.142195 
L 260.695954 277.8456 
L 261.020934 282.621171 
L 261.345913 282.656462 
L 261.670893 272.185342 
L 261.995872 277.8456 
L 262.320852 280.92267 
L 262.645831 272.185342 
L 262.970811 286.658021 
L 263.29579 273.361378 
L 263.945749 282.5856 
L 264.270729 280.882084 
L 264.595708 280.92267 
L 264.920688 284.44611 
L 265.245667 276.514024 
L 265.570647 279.312646 
L 265.895627 286.658021 
L 266.220606 279.357889 
L 266.545586 277.944446 
L 266.870565 282.621171 
L 267.195545 274.5216 
L 267.520524 276.460252 
L 268.170483 286.681816 
L 268.495463 276.514024 
L 268.820442 277.944446 
L 269.145422 289.429043 
L 269.795381 280.882084 
L 270.12036 280.92267 
L 270.44534 282.621171 
L 270.770319 277.8456 
L 271.095299 282.5856 
L 271.420278 277.123272 
L 271.745258 279.312646 
L 272.070238 282.621171 
L 272.720197 286.681816 
L 273.045176 289.396964 
L 273.370156 289.396964 
L 274.020115 280.882084 
L 274.670074 280.882084 
L 274.995053 284.506471 
L 275.320033 284.506471 
L 275.645012 279.267042 
L 275.969992 279.357889 
L 276.294971 276.460252 
L 276.619951 279.267042 
L 276.94493 275.142195 
L 277.594889 282.621171 
L 277.919869 273.942458 
L 278.569828 289.413066 
L 278.894808 284.47641 
L 279.219787 273.942458 
L 279.544767 280.882084 
L 279.869746 284.47641 
L 280.194726 284.44611 
L 280.519705 275.793715 
L 280.844685 273.880919 
L 281.169664 276.460252 
L 281.494644 275.083995 
L 282.144603 284.47641 
L 282.794562 276.351404 
L 283.119541 277.89522 
L 283.444521 284.415569 
L 283.7695 276.460252 
L 284.09448 282.621171 
L 284.419459 282.656462 
L 285.069419 275.142195 
L 285.394398 280.882084 
L 285.719378 275.199931 
L 286.369337 286.658021 
L 286.694316 277.8456 
L 287.344275 286.658021 
L 287.669255 282.5856 
L 287.994234 289.429043 
L 288.319214 289.380737 
L 288.644193 282.621171 
L 288.969173 282.621171 
L 289.294152 286.658021 
L 289.619132 279.312646 
L 289.944111 282.621171 
L 290.269091 277.224551 
L 290.59407 286.681816 
L 290.91905 280.841173 
L 291.244029 277.8456 
L 291.569009 284.506471 
L 292.218968 275.257208 
L 292.543948 279.312646 
L 292.868927 279.312646 
L 293.193907 277.8456 
L 293.843866 286.681816 
L 294.168845 284.44611 
L 294.493825 277.8456 
L 294.818804 280.841173 
L 295.143784 280.92267 
L 295.468763 279.312646 
L 295.793743 278.520944 
L 296.118722 276.460252 
L 296.443702 280.882084 
L 296.768681 276.514024 
L 297.41864 284.47641 
L 297.74362 279.357889 
L 298.0686 280.882084 
L 298.393579 276.514024 
L 298.718559 280.882084 
L 299.043538 282.5856 
L 299.368518 279.267042 
L 299.693497 279.312646 
L 300.018477 280.882084 
L 300.343456 284.506471 
L 300.668436 282.621171 
L 300.993415 279.267042 
L 301.318395 282.5856 
L 301.643374 277.89522 
L 302.293333 286.658021 
L 302.618313 280.841173 
L 302.943292 284.47641 
L 303.268272 284.506471 
L 303.593251 282.621171 
L 303.918231 282.5856 
L 304.24321 279.357889 
L 304.56819 277.795582 
L 304.89317 280.841173 
L 305.218149 282.549746 
L 305.543129 286.705426 
L 305.868108 282.5856 
L 306.193088 286.658021 
L 306.518067 286.681816 
L 306.843047 275.257208 
L 307.168026 280.92267 
L 307.493006 284.506471 
L 307.817985 282.5856 
L 308.142965 279.312646 
L 308.467944 277.8456 
L 308.792924 277.8456 
L 309.117903 282.621171 
L 309.442883 282.656462 
L 309.767862 286.658021 
L 310.092842 280.00137 
L 310.417821 284.506471 
L 310.742801 280.882084 
L 311.067781 279.312646 
L 311.39276 284.536296 
L 311.71774 279.267042 
L 312.367699 282.621171 
L 312.692678 282.621171 
L 313.017658 284.506471 
L 313.342637 282.621171 
L 313.667617 279.267042 
L 313.992596 282.5856 
L 314.642555 279.312646 
L 315.292514 282.621171 
L 315.617494 289.380737 
L 316.592432 275.793715 
L 316.917412 289.380737 
L 317.242391 282.621171 
L 317.567371 279.312646 
L 317.892351 286.658021 
L 318.21733 286.634039 
L 318.54231 284.47641 
L 318.867289 284.47641 
L 319.192269 282.5856 
L 319.517248 284.47641 
L 320.167207 284.47641 
L 320.492187 280.882084 
L 320.817166 279.312646 
L 321.142146 284.47641 
L 321.467125 279.312646 
L 321.792105 289.413066 
L 322.117084 289.396964 
L 322.442064 277.89522 
L 322.767043 282.5856 
L 323.092023 280.882084 
L 323.417002 280.882084 
L 323.741982 284.47641 
L 324.066962 280.841173 
L 324.391941 282.549746 
L 324.716921 282.5856 
L 325.0419 286.658021 
L 325.36688 280.882084 
L 325.691859 277.795582 
L 326.016839 280.841173 
L 326.341818 279.312646 
L 326.666798 279.312646 
L 326.991777 289.413066 
L 327.316757 272.119207 
L 327.641736 280.92267 
L 327.966716 279.267042 
L 328.291695 282.549746 
L 328.616675 282.5856 
L 328.941654 286.681816 
L 329.266634 278.567537 
L 329.591613 280.92267 
L 329.916593 277.944446 
L 330.241572 284.506471 
L 330.566552 279.312646 
L 330.891532 277.89522 
L 331.216511 282.656462 
L 331.541491 282.621171 
L 331.86647 280.92267 
L 332.19145 276.514024 
L 332.516429 280.882084 
L 332.841409 282.656462 
L 333.491368 271.689578 
L 333.816347 280.92267 
L 334.141327 277.89522 
L 334.466306 280.92267 
L 334.791286 279.312646 
L 335.116265 282.656462 
L 335.441245 276.460252 
L 335.766224 280.799933 
L 336.091204 279.267042 
L 336.416183 284.44611 
L 336.741163 277.795582 
L 337.066143 279.357889 
L 337.391122 273.818885 
L 337.716102 286.705426 
L 338.041081 282.656462 
L 338.366061 284.47641 
L 338.69104 275.199931 
L 339.01602 280.92267 
L 339.340999 277.174112 
L 339.665979 282.513604 
L 339.990958 284.47641 
L 340.315938 277.89522 
L 340.640917 279.312646 
L 340.965897 277.89522 
L 341.615856 284.506471 
L 341.940835 282.621171 
L 342.265815 282.549746 
L 342.590794 280.841173 
L 342.915774 277.89522 
L 343.240753 276.460252 
L 343.890713 286.681816 
L 344.215692 276.460252 
L 344.540672 286.681816 
L 344.865651 282.5856 
L 345.190631 282.549746 
L 345.51561 279.312646 
L 345.84059 279.312646 
L 346.165569 284.47641 
L 346.490549 282.5856 
L 347.140508 289.396964 
L 347.465487 280.841173 
L 347.790467 282.5856 
L 348.115446 282.549746 
L 348.440426 280.841173 
L 348.765405 286.658021 
L 349.090385 280.882084 
L 349.415364 280.882084 
L 349.740344 286.658021 
L 350.065324 289.413066 
L 350.390303 276.460252 
L 351.040262 279.357889 
L 351.365242 277.89522 
L 351.690221 279.267042 
L 352.015201 289.380737 
L 352.34018 280.962936 
L 352.66516 282.621171 
L 352.990139 279.312646 
L 353.315119 277.8456 
L 353.640098 279.312646 
L 353.965078 284.506471 
L 354.290057 277.8456 
L 354.615037 280.882084 
L 354.940016 277.8456 
L 355.264996 284.506471 
L 355.589975 279.402773 
L 355.914955 279.312646 
L 356.239934 278.613765 
L 356.564914 280.882084 
L 356.889894 276.460252 
L 357.214873 280.92267 
L 357.539853 280.882084 
L 357.864832 281.002885 
L 358.189812 280.841173 
L 358.514791 284.47641 
L 358.839771 286.634039 
L 359.16475 279.312646 
L 359.814709 277.8456 
L 360.139689 275.142195 
L 360.464668 284.47641 
L 360.789648 282.549746 
L 361.114627 289.429043 
L 361.764586 279.357889 
L 362.089566 279.312646 
L 362.414545 286.634039 
L 362.739525 279.402773 
L 363.064505 284.44611 
L 363.389484 278.567537 
L 363.714464 286.681816 
L 364.039443 277.89522 
L 364.364423 284.536296 
L 364.689402 279.402773 
L 365.014382 280.841173 
L 365.339361 286.634039 
L 365.664341 280.92267 
L 365.98932 284.44611 
L 366.3143 280.882084 
L 366.639279 280.882084 
L 366.964259 268.869613 
L 367.289238 280.882084 
L 367.614218 272.602746 
L 367.939197 282.621171 
L 368.264177 277.89522 
L 368.589156 284.506471 
L 369.239115 276.406047 
L 369.564095 284.47641 
L 369.889075 280.882084 
L 370.214054 280.882084 
L 370.539034 276.406047 
L 370.864013 280.92267 
L 371.188993 277.174112 
L 371.513972 286.658021 
L 371.838952 282.621171 
L 372.163931 286.634039 
L 372.81389 275.142195 
L 373.13887 286.681816 
L 373.463849 286.658021 
L 373.788829 276.460252 
L 374.113808 286.658021 
L 374.438788 284.44611 
L 374.763767 280.841173 
L 375.413726 279.312646 
L 376.063686 272.733672 
L 376.388665 282.656462 
L 376.713645 280.841173 
L 377.038624 284.506471 
L 377.363604 282.621171 
L 377.688583 279.312646 
L 378.013563 284.44611 
L 378.338542 279.357889 
L 378.663522 289.396964 
L 378.988501 282.5856 
L 379.313481 280.882084 
L 379.63846 280.962936 
L 379.96344 279.402773 
L 380.288419 284.47641 
L 380.613399 286.634039 
L 380.938378 280.92267 
L 381.263358 280.882084 
L 381.588337 275.848608 
L 381.913317 276.514024 
L 382.238296 282.621171 
L 382.563276 284.47641 
L 382.888256 282.549746 
L 383.213235 282.549746 
L 383.538215 277.795582 
L 383.863194 295.488 
L 384.188174 289.413066 
L 384.513153 280.882084 
L 384.838133 282.621171 
L 385.163112 282.656462 
L 385.488092 277.795582 
L 385.813071 280.92267 
L 386.138051 280.882084 
L 386.46303 289.396964 
L 386.78801 277.993284 
L 387.112989 282.656462 
L 387.437969 277.745159 
L 387.762948 280.92267 
L 388.087928 286.658021 
L 388.412907 286.634039 
L 388.737887 289.413066 
L 389.062867 279.312646 
L 389.387846 284.506471 
L 389.712826 280.882084 
L 390.037805 280.882084 
L 390.362785 278.520944 
L 390.687764 280.00137 
L 391.012744 280.92267 
L 391.337723 272.733672 
L 391.662703 279.267042 
L 391.987682 279.312646 
L 392.312662 284.536296 
L 392.637641 279.267042 
L 392.962621 277.993284 
L 393.2876 295.488 
L 393.61258 280.882084 
L 393.937559 277.8456 
L 394.262539 275.903066 
L 394.587518 286.658021 
L 394.912498 282.5856 
L 395.237477 286.681816 
L 395.562457 276.460252 
L 395.887437 282.549746 
L 396.212416 282.656462 
L 396.537396 277.8456 
L 396.862375 282.5856 
L 397.187355 280.92267 
L 397.512334 280.882084 
L 397.837314 276.406047 
L 398.162293 286.681816 
L 398.487273 286.658021 
L 398.487273 286.658021 
" style="fill:none;stroke:#008000;stroke-dasharray:9.6,2.4,1.5,2.4;stroke-dashoffset:0;stroke-width:1.5;"/>
   </g>
   <g id="line2d_29">
    <path clip-path="url(#pf40ca44b68)" d="M 73.832727 214.848 
L 80.332318 214.848 
L 80.657297 134.208 
L 80.982277 214.848 
L 81.307256 214.848 
L 81.632236 134.208 
L 81.957215 214.848 
L 92.031581 214.848 
L 92.35656 134.208 
L 92.68154 214.848 
L 99.18113 214.848 
L 99.50611 134.208 
L 99.831089 214.848 
L 101.131007 214.848 
L 101.455987 134.208 
L 101.780966 214.848 
L 102.430925 214.848 
L 102.755905 134.208 
L 103.080885 134.208 
L 103.405864 214.848 
L 106.980639 214.848 
L 107.305618 134.208 
L 107.630598 214.848 
L 107.955577 134.208 
L 108.280557 214.848 
L 109.255495 214.848 
L 109.580475 134.208 
L 109.905455 214.848 
L 113.15525 214.848 
L 113.480229 134.208 
L 113.805209 214.848 
L 114.455168 214.848 
L 114.780147 134.208 
L 115.105127 214.848 
L 118.029943 214.848 
L 118.354922 134.208 
L 118.679902 214.848 
L 119.65484 214.848 
L 119.97982 134.208 
L 120.304799 214.848 
L 120.629779 53.568 
L 120.954758 214.848 
L 127.454349 214.848 
L 127.779328 134.208 
L 128.104308 134.208 
L 128.429287 214.848 
L 133.62896 214.848 
L 133.953939 134.208 
L 134.278919 214.848 
L 138.503653 214.848 
L 138.828632 134.208 
L 139.153612 214.848 
L 142.078428 214.848 
L 142.403407 134.208 
L 142.728387 214.848 
L 149.877936 214.848 
L 150.202916 134.208 
L 150.527895 214.848 
L 150.852875 214.848 
L 151.177854 134.208 
L 151.502834 214.848 
L 152.802752 214.848 
L 153.127731 134.208 
L 153.452711 214.848 
L 156.377527 214.848 
L 156.702506 134.208 
L 157.027486 214.848 
L 162.877117 214.848 
L 163.202097 134.208 
L 163.527076 214.848 
L 171.651564 214.848 
L 171.976544 134.208 
L 172.301523 214.848 
L 172.951482 214.848 
L 173.276462 134.208 
L 173.601441 214.848 
L 176.526257 214.848 
L 176.851237 134.208 
L 177.176216 214.848 
L 180.750991 214.848 
L 181.075971 134.208 
L 181.40095 214.848 
L 181.72593 134.208 
L 182.050909 214.848 
L 195.05009 214.848 
L 195.37507 134.208 
L 195.700049 214.848 
L 199.274824 214.848 
L 199.599803 134.208 
L 199.924783 134.208 
L 200.249762 214.848 
L 222.023391 214.848 
L 222.34837 134.208 
L 222.67335 214.848 
L 228.198002 214.848 
L 228.522981 134.208 
L 228.847961 214.848 
L 236.972449 214.848 
L 237.297428 134.208 
L 237.622408 214.848 
L 237.947387 214.848 
L 238.272367 134.208 
L 238.597346 214.848 
L 242.172121 214.848 
L 242.497101 134.208 
L 242.82208 134.208 
L 243.14706 214.848 
L 255.496282 214.848 
L 255.821261 134.208 
L 256.146241 214.848 
L 261.345913 214.848 
L 261.670893 134.208 
L 261.995872 214.848 
L 262.320852 214.848 
L 262.645831 134.208 
L 262.970811 214.848 
L 263.29579 134.208 
L 263.62077 214.848 
L 266.870565 214.848 
L 267.195545 134.208 
L 267.520524 214.848 
L 271.095299 214.848 
L 271.420278 134.208 
L 271.745258 214.848 
L 280.194726 214.848 
L 280.519705 134.208 
L 280.844685 214.848 
L 282.144603 214.848 
L 282.469582 134.208 
L 282.794562 214.848 
L 289.944111 214.848 
L 290.269091 134.208 
L 290.59407 214.848 
L 295.468763 214.848 
L 295.793743 134.208 
L 296.118722 214.848 
L 309.767862 214.848 
L 310.092842 134.208 
L 310.417821 214.848 
L 316.267453 214.848 
L 316.592432 134.208 
L 316.917412 214.848 
L 326.991777 214.848 
L 327.316757 134.208 
L 327.641736 214.848 
L 328.941654 214.848 
L 329.266634 134.208 
L 329.591613 214.848 
L 333.166388 214.848 
L 333.491368 134.208 
L 333.816347 214.848 
L 339.01602 214.848 
L 339.340999 134.208 
L 339.665979 214.848 
L 355.914955 214.848 
L 356.239934 134.208 
L 356.564914 214.848 
L 359.16475 214.848 
L 359.48973 134.208 
L 359.814709 214.848 
L 363.064505 214.848 
L 363.389484 134.208 
L 363.714464 214.848 
L 366.639279 214.848 
L 366.964259 134.208 
L 367.289238 214.848 
L 370.864013 214.848 
L 371.188993 134.208 
L 371.513972 214.848 
L 374.763767 214.848 
L 375.088747 134.208 
L 375.413726 214.848 
L 381.263358 214.848 
L 381.588337 134.208 
L 381.913317 214.848 
L 383.538215 214.848 
L 383.863194 295.488 
L 384.188174 214.848 
L 390.037805 214.848 
L 390.362785 134.208 
L 390.687764 134.208 
L 391.012744 214.848 
L 392.962621 214.848 
L 393.2876 295.488 
L 393.61258 214.848 
L 393.937559 214.848 
L 394.262539 134.208 
L 394.587518 214.848 
L 398.487273 214.848 
L 398.487273 214.848 
" style="fill:none;stroke:#ff0000;stroke-linecap:square;stroke-width:1.5;"/>
   </g>
   <g id="patch_3">
    <path d="M 57.6 307.584 
L 57.6 41.472 
" style="fill:none;stroke:#000000;stroke-linecap:square;stroke-linejoin:miter;stroke-width:0.8;"/>
   </g>
   <g id="patch_4">
    <path d="M 414.72 307.584 
L 414.72 41.472 
" style="fill:none;stroke:#000000;stroke-linecap:square;stroke-linejoin:miter;stroke-width:0.8;"/>
   </g>
   <g id="patch_5">
    <path d="M 57.6 307.584 
L 414.72 307.584 
" style="fill:none;stroke:#000000;stroke-linecap:square;stroke-linejoin:miter;stroke-width:0.8;"/>
   </g>
   <g id="patch_6">
    <path d="M 57.6 41.472 
L 414.72 41.472 
" style="fill:none;stroke:#000000;stroke-linecap:square;stroke-linejoin:miter;stroke-width:0.8;"/>
   </g>
   <g id="text_16">
    <!-- Population's average and best fitness -->
    <g transform="translate(123.529687 35.472)scale(0.12 -0.12)">
     <defs>
      <path d="M 19.671875 64.796875 
L 19.671875 37.40625 
L 32.078125 37.40625 
Q 38.96875 37.40625 42.71875 40.96875 
Q 46.484375 44.53125 46.484375 51.125 
Q 46.484375 57.671875 42.71875 61.234375 
Q 38.96875 64.796875 32.078125 64.796875 
z
M 9.8125 72.90625 
L 32.078125 72.90625 
Q 44.34375 72.90625 50.609375 67.359375 
Q 56.890625 61.8125 56.890625 51.125 
Q 56.890625 40.328125 50.609375 34.8125 
Q 44.34375 29.296875 32.078125 29.296875 
L 19.671875 29.296875 
L 19.671875 0 
L 9.8125 0 
z
" id="DejaVuSans-80"/>
      <path d="M 18.109375 8.203125 
L 18.109375 -20.796875 
L 9.078125 -20.796875 
L 9.078125 54.6875 
L 18.109375 54.6875 
L 18.109375 46.390625 
Q 20.953125 51.265625 25.265625 53.625 
Q 29.59375 56 35.59375 56 
Q 45.5625 56 51.78125 48.09375 
Q 58.015625 40.1875 58.015625 27.296875 
Q 58.015625 14.40625 51.78125 6.484375 
Q 45.5625 -1.421875 35.59375 -1.421875 
Q 29.59375 -1.421875 25.265625 0.953125 
Q 20.953125 3.328125 18.109375 8.203125 
z
M 48.6875 27.296875 
Q 48.6875 37.203125 44.609375 42.84375 
Q 40.53125 48.484375 33.40625 48.484375 
Q 26.265625 48.484375 22.1875 42.84375 
Q 18.109375 37.203125 18.109375 27.296875 
Q 18.109375 17.390625 22.1875 11.75 
Q 26.265625 6.109375 33.40625 6.109375 
Q 40.53125 6.109375 44.609375 11.75 
Q 48.6875 17.390625 48.6875 27.296875 
z
" id="DejaVuSans-112"/>
      <path d="M 8.5 21.578125 
L 8.5 54.6875 
L 17.484375 54.6875 
L 17.484375 21.921875 
Q 17.484375 14.15625 20.5 10.265625 
Q 23.53125 6.390625 29.59375 6.390625 
Q 36.859375 6.390625 41.078125 11.03125 
Q 45.3125 15.671875 45.3125 23.6875 
L 45.3125 54.6875 
L 54.296875 54.6875 
L 54.296875 0 
L 45.3125 0 
L 45.3125 8.40625 
Q 42.046875 3.421875 37.71875 1 
Q 33.40625 -1.421875 27.6875 -1.421875 
Q 18.265625 -1.421875 13.375 4.4375 
Q 8.5 10.296875 8.5 21.578125 
z
M 31.109375 56 
z
" id="DejaVuSans-117"/>
      <path d="M 9.421875 75.984375 
L 18.40625 75.984375 
L 18.40625 0 
L 9.421875 0 
z
" id="DejaVuSans-108"/>
      <path d="M 17.921875 72.90625 
L 17.921875 45.796875 
L 9.625 45.796875 
L 9.625 72.90625 
z
" id="DejaVuSans-39"/>
      <path id="DejaVuSans-32"/>
      <path d="M 2.984375 54.6875 
L 12.5 54.6875 
L 29.59375 8.796875 
L 46.6875 54.6875 
L 56.203125 54.6875 
L 35.6875 0 
L 23.484375 0 
z
" id="DejaVuSans-118"/>
      <path d="M 45.40625 27.984375 
Q 45.40625 37.75 41.375 43.109375 
Q 37.359375 48.484375 30.078125 48.484375 
Q 22.859375 48.484375 18.828125 43.109375 
Q 14.796875 37.75 14.796875 27.984375 
Q 14.796875 18.265625 18.828125 12.890625 
Q 22.859375 7.515625 30.078125 7.515625 
Q 37.359375 7.515625 41.375 12.890625 
Q 45.40625 18.265625 45.40625 27.984375 
z
M 54.390625 6.78125 
Q 54.390625 -7.171875 48.1875 -13.984375 
Q 42 -20.796875 29.203125 -20.796875 
Q 24.46875 -20.796875 20.265625 -20.09375 
Q 16.0625 -19.390625 12.109375 -17.921875 
L 12.109375 -9.1875 
Q 16.0625 -11.328125 19.921875 -12.34375 
Q 23.78125 -13.375 27.78125 -13.375 
Q 36.625 -13.375 41.015625 -8.765625 
Q 45.40625 -4.15625 45.40625 5.171875 
L 45.40625 9.625 
Q 42.625 4.78125 38.28125 2.390625 
Q 33.9375 0 27.875 0 
Q 17.828125 0 11.671875 7.65625 
Q 5.515625 15.328125 5.515625 27.984375 
Q 5.515625 40.671875 11.671875 48.328125 
Q 17.828125 56 27.875 56 
Q 33.9375 56 38.28125 53.609375 
Q 42.625 51.21875 45.40625 46.390625 
L 45.40625 54.6875 
L 54.390625 54.6875 
z
" id="DejaVuSans-103"/>
      <path d="M 45.40625 46.390625 
L 45.40625 75.984375 
L 54.390625 75.984375 
L 54.390625 0 
L 45.40625 0 
L 45.40625 8.203125 
Q 42.578125 3.328125 38.25 0.953125 
Q 33.9375 -1.421875 27.875 -1.421875 
Q 17.96875 -1.421875 11.734375 6.484375 
Q 5.515625 14.40625 5.515625 27.296875 
Q 5.515625 40.1875 11.734375 48.09375 
Q 17.96875 56 27.875 56 
Q 33.9375 56 38.25 53.625 
Q 42.578125 51.265625 45.40625 46.390625 
z
M 14.796875 27.296875 
Q 14.796875 17.390625 18.875 11.75 
Q 22.953125 6.109375 30.078125 6.109375 
Q 37.203125 6.109375 41.296875 11.75 
Q 45.40625 17.390625 45.40625 27.296875 
Q 45.40625 37.203125 41.296875 42.84375 
Q 37.203125 48.484375 30.078125 48.484375 
Q 22.953125 48.484375 18.875 42.84375 
Q 14.796875 37.203125 14.796875 27.296875 
z
" id="DejaVuSans-100"/>
      <path d="M 48.6875 27.296875 
Q 48.6875 37.203125 44.609375 42.84375 
Q 40.53125 48.484375 33.40625 48.484375 
Q 26.265625 48.484375 22.1875 42.84375 
Q 18.109375 37.203125 18.109375 27.296875 
Q 18.109375 17.390625 22.1875 11.75 
Q 26.265625 6.109375 33.40625 6.109375 
Q 40.53125 6.109375 44.609375 11.75 
Q 48.6875 17.390625 48.6875 27.296875 
z
M 18.109375 46.390625 
Q 20.953125 51.265625 25.265625 53.625 
Q 29.59375 56 35.59375 56 
Q 45.5625 56 51.78125 48.09375 
Q 58.015625 40.1875 58.015625 27.296875 
Q 58.015625 14.40625 51.78125 6.484375 
Q 45.5625 -1.421875 35.59375 -1.421875 
Q 29.59375 -1.421875 25.265625 0.953125 
Q 20.953125 3.328125 18.109375 8.203125 
L 18.109375 0 
L 9.078125 0 
L 9.078125 75.984375 
L 18.109375 75.984375 
z
" id="DejaVuSans-98"/>
      <path d="M 37.109375 75.984375 
L 37.109375 68.5 
L 28.515625 68.5 
Q 23.6875 68.5 21.796875 66.546875 
Q 19.921875 64.59375 19.921875 59.515625 
L 19.921875 54.6875 
L 34.71875 54.6875 
L 34.71875 47.703125 
L 19.921875 47.703125 
L 19.921875 0 
L 10.890625 0 
L 10.890625 47.703125 
L 2.296875 47.703125 
L 2.296875 54.6875 
L 10.890625 54.6875 
L 10.890625 58.5 
Q 10.890625 67.625 15.140625 71.796875 
Q 19.390625 75.984375 28.609375 75.984375 
z
" id="DejaVuSans-102"/>
     </defs>
     <use xlink:href="#DejaVuSans-80"/>
     <use x="56.677734" xlink:href="#DejaVuSans-111"/>
     <use x="117.859375" xlink:href="#DejaVuSans-112"/>
     <use x="181.335938" xlink:href="#DejaVuSans-117"/>
     <use x="244.714844" xlink:href="#DejaVuSans-108"/>
     <use x="272.498047" xlink:href="#DejaVuSans-97"/>
     <use x="333.777344" xlink:href="#DejaVuSans-116"/>
     <use x="372.986328" xlink:href="#DejaVuSans-105"/>
     <use x="400.769531" xlink:href="#DejaVuSans-111"/>
     <use x="461.951172" xlink:href="#DejaVuSans-110"/>
     <use x="525.330078" xlink:href="#DejaVuSans-39"/>
     <use x="552.820312" xlink:href="#DejaVuSans-115"/>
     <use x="604.919922" xlink:href="#DejaVuSans-32"/>
     <use x="636.707031" xlink:href="#DejaVuSans-97"/>
     <use x="697.986328" xlink:href="#DejaVuSans-118"/>
     <use x="757.166016" xlink:href="#DejaVuSans-101"/>
     <use x="818.689453" xlink:href="#DejaVuSans-114"/>
     <use x="859.802734" xlink:href="#DejaVuSans-97"/>
     <use x="921.082031" xlink:href="#DejaVuSans-103"/>
     <use x="984.558594" xlink:href="#DejaVuSans-101"/>
     <use x="1046.082031" xlink:href="#DejaVuSans-32"/>
     <use x="1077.869141" xlink:href="#DejaVuSans-97"/>
     <use x="1139.148438" xlink:href="#DejaVuSans-110"/>
     <use x="1202.527344" xlink:href="#DejaVuSans-100"/>
     <use x="1266.003906" xlink:href="#DejaVuSans-32"/>
     <use x="1297.791016" xlink:href="#DejaVuSans-98"/>
     <use x="1361.267578" xlink:href="#DejaVuSans-101"/>
     <use x="1422.791016" xlink:href="#DejaVuSans-115"/>
     <use x="1474.890625" xlink:href="#DejaVuSans-116"/>
     <use x="1514.099609" xlink:href="#DejaVuSans-32"/>
     <use x="1545.886719" xlink:href="#DejaVuSans-102"/>
     <use x="1581.091797" xlink:href="#DejaVuSans-105"/>
     <use x="1608.875" xlink:href="#DejaVuSans-116"/>
     <use x="1648.083984" xlink:href="#DejaVuSans-110"/>
     <use x="1711.462891" xlink:href="#DejaVuSans-101"/>
     <use x="1772.986328" xlink:href="#DejaVuSans-115"/>
     <use x="1825.085938" xlink:href="#DejaVuSans-115"/>
    </g>
   </g>
   <g id="legend_1">
    <g id="patch_7">
     <path d="M 334.779375 93.506375 
L 407.72 93.506375 
Q 409.72 93.506375 409.72 91.506375 
L 409.72 48.472 
Q 409.72 46.472 407.72 46.472 
L 334.779375 46.472 
Q 332.779375 46.472 332.779375 48.472 
L 332.779375 91.506375 
Q 332.779375 93.506375 334.779375 93.506375 
z
" style="fill:#ffffff;opacity:0.8;stroke:#cccccc;stroke-linejoin:miter;"/>
    </g>
    <g id="line2d_30">
     <path d="M 336.779375 54.570438 
L 356.779375 54.570438 
" style="fill:none;stroke:#0000ff;stroke-linecap:square;stroke-width:1.5;"/>
    </g>
    <g id="line2d_31"/>
    <g id="text_17">
     <!-- average -->
     <g transform="translate(364.779375 58.070438)scale(0.1 -0.1)">
      <use xlink:href="#DejaVuSans-97"/>
      <use x="61.279297" xlink:href="#DejaVuSans-118"/>
      <use x="120.458984" xlink:href="#DejaVuSans-101"/>
      <use x="181.982422" xlink:href="#DejaVuSans-114"/>
      <use x="223.095703" xlink:href="#DejaVuSans-97"/>
      <use x="284.375" xlink:href="#DejaVuSans-103"/>
      <use x="347.851562" xlink:href="#DejaVuSans-101"/>
     </g>
    </g>
    <g id="line2d_32">
     <path d="M 336.779375 69.248563 
L 356.779375 69.248563 
" style="fill:none;stroke:#008000;stroke-dasharray:9.6,2.4,1.5,2.4;stroke-dashoffset:0;stroke-width:1.5;"/>
    </g>
    <g id="line2d_33"/>
    <g id="text_18">
     <!-- +1 sd -->
     <g transform="translate(364.779375 72.748563)scale(0.1 -0.1)">
      <defs>
       <path d="M 46 62.703125 
L 46 35.5 
L 73.1875 35.5 
L 73.1875 27.203125 
L 46 27.203125 
L 46 0 
L 37.796875 0 
L 37.796875 27.203125 
L 10.59375 27.203125 
L 10.59375 35.5 
L 37.796875 35.5 
L 37.796875 62.703125 
z
" id="DejaVuSans-43"/>
      </defs>
      <use xlink:href="#DejaVuSans-43"/>
      <use x="83.789062" xlink:href="#DejaVuSans-49"/>
      <use x="147.412109" xlink:href="#DejaVuSans-32"/>
      <use x="179.199219" xlink:href="#DejaVuSans-115"/>
      <use x="231.298828" xlink:href="#DejaVuSans-100"/>
     </g>
    </g>
    <g id="line2d_34">
     <path d="M 336.779375 83.926688 
L 356.779375 83.926688 
" style="fill:none;stroke:#ff0000;stroke-linecap:square;stroke-width:1.5;"/>
    </g>
    <g id="line2d_35"/>
    <g id="text_19">
     <!-- best -->
     <g transform="translate(364.779375 87.426688)scale(0.1 -0.1)">
      <use xlink:href="#DejaVuSans-98"/>
      <use x="63.476562" xlink:href="#DejaVuSans-101"/>
      <use x="125" xlink:href="#DejaVuSans-115"/>
      <use x="177.099609" xlink:href="#DejaVuSans-116"/>
     </g>
    </g>
   </g>
  </g>
 </g>
 <defs>
  <clipPath id="pf40ca44b68">
   <rect height="266.112" width="357.12" x="57.6" y="41.472"/>
  </clipPath>
 </defs>
</svg>
